<?xml version="1.0" encoding="UTF-8"?>
<svg version="1.1" xmlns="http://www.w3.org/2000/svg" width="1024" height="1024">
<path d="M0 0 C337.92 0 675.84 0 1024 0 C1024 337.92 1024 675.84 1024 1024 C686.08 1024 348.16 1024 0 1024 C0 686.08 0 348.16 0 0 Z " fill="#EAEAEB" transform="translate(0,0)"/>
<path d="M0 0 C3.99055444 1.29238341 7.52622644 2.69153856 11.17578125 4.765625 C12.6455542 5.59525757 12.6455542 5.59525757 14.14501953 6.44165039 C15.71292236 7.33678345 15.71292236 7.33678345 17.3125 8.25 C19.56631814 9.52489537 21.82022692 10.79963049 24.07421875 12.07421875 C25.23621036 12.73348189 26.39815695 13.3928244 27.56005859 14.05224609 C32.90287621 17.07744119 38.26470782 20.0684174 43.625 23.0625 C50.58018749 26.95343091 57.52598395 30.86013148 64.45825195 34.79174805 C74.24879825 40.34414794 84.07805069 45.82125317 93.9375 51.25 C110.41233665 60.32202421 110.41233665 60.32202421 117.75 64.4375 C118.39316162 64.79682617 119.03632324 65.15615234 119.69897461 65.52636719 C123.87917215 67.87917215 123.87917215 67.87917215 125 69 C125.0883967 71.3756852 125.11530305 73.72208674 125.09765625 76.09765625 C125.0962413 76.80651474 125.09482635 77.51537323 125.09336853 78.24571228 C125.08775443 80.51801712 125.07519963 82.79022475 125.0625 85.0625 C125.05748681 86.59960796 125.05292359 88.13671745 125.04882812 89.67382812 C125.03778042 93.44925642 125.02050641 97.22461171 125 101 C120.35503375 99.1922863 116.02628211 97.01452536 111.625 94.6875 C110.79701904 94.25091064 109.96903809 93.81432129 109.1159668 93.36450195 C101.63456385 89.39059313 94.26721831 85.2255664 86.90722656 81.03222656 C79.94513086 77.07402214 72.92868993 73.22977582 65.875 69.4375 C55.4036845 63.80581776 45.06383899 57.96476761 34.77392578 52.00878906 C33.53514123 51.30432199 32.27463282 50.63731641 31 50 C31.33 71.45 31.66 92.9 32 115 C39.92 119.29 47.84 123.58 56 128 C60.09387954 130.276933 64.18048102 132.55641051 68.25 134.875 C69.19327148 135.40963867 70.13654297 135.94427734 71.10839844 136.49511719 C77.07103043 139.88087129 83.00465498 143.31047428 88.890625 146.828125 C91.07918648 148.12877801 91.07918648 148.12877801 94 149 C94.43049586 143.9310045 94.77598316 138.84055379 93 134 C89.10447872 130.03448165 84.53811907 127.9111122 79.5625 125.625 C78.28055757 124.984434 77.00121674 124.3386335 75.72460938 123.6875 C72.51108141 122.06317208 69.26433456 120.52001782 66 119 C65.34 118.67 64.68 118.34 64 118 C64 107.11 64 96.22 64 85 C67.76169103 86.50467641 71.00984847 88.02424577 74.515625 89.984375 C75.59062256 90.58354736 76.66562012 91.18271973 77.77319336 91.80004883 C78.92053955 92.44353271 80.06788574 93.0870166 81.25 93.75 C82.44589788 94.41782524 83.6419449 95.08538345 84.83813477 95.75268555 C88.56111731 97.83091719 92.2808496 99.91492014 96 102 C97.21532871 102.68115828 98.43066069 103.3623107 99.64599609 104.04345703 C100.53195969 104.54007339 100.53195969 104.54007339 101.43582153 105.04672241 C103.16842495 106.01789546 104.9011063 106.98892946 106.63378906 107.95996094 C108.79920375 109.17420618 110.96394247 110.38965789 113.12792969 111.60644531 C114.10536133 112.15526367 115.08279297 112.70408203 116.08984375 113.26953125 C117.37169556 113.99039917 117.37169556 113.99039917 118.67944336 114.72583008 C120.75929554 115.86783413 122.87774491 116.93887246 125 118 C125 145.06 125 172.12 125 200 C116.54645808 195.77322904 108.28677615 191.57869803 100.125 186.875 C92.13642883 182.31388609 84.10194215 177.85649308 76 173.5 C68.11375156 169.25630748 60.28344905 164.92942109 52.5 160.5 C43.57521588 155.42116643 34.5777686 150.49246534 25.53881836 145.62011719 C19.52166964 142.37385972 13.52381052 139.0978052 7.5625 135.75 C6.90000244 135.37907227 6.23750488 135.00814453 5.55493164 134.62597656 C1.1260796 132.1260796 1.1260796 132.1260796 0 131 C-0.09619441 129.30441297 -0.12187659 127.6047916 -0.12025452 125.90647888 C-0.12162918 124.80285004 -0.12300385 123.69922119 -0.12442017 122.56214905 C-0.12082489 121.34079758 -0.11722961 120.11944611 -0.11352539 118.86108398 C-0.11367142 117.58322021 -0.11381744 116.30535645 -0.1139679 114.98876953 C-0.11425585 111.47446409 -0.1083594 107.9601925 -0.10139394 104.44589496 C-0.09516012 100.77700644 -0.09455658 97.10811723 -0.09336853 93.43922424 C-0.0902553 86.48709565 -0.08204202 79.5349827 -0.07201904 72.58286101 C-0.06085766 64.6700522 -0.05534739 56.75724266 -0.05032361 48.84442794 C-0.0398594 32.56294279 -0.02226011 16.28147339 0 0 Z " fill="#3C4243" transform="translate(386,427)"/>
<path d="M0 0 C0.14852367 4.62632203 0.25729019 9.25125242 0.32958984 13.87939453 C0.35973081 15.45288263 0.40065294 17.02620312 0.45263672 18.59912109 C0.52558491 20.86337587 0.55947806 23.12540814 0.5859375 25.390625 C0.61690521 26.09181458 0.64787292 26.79300415 0.67977905 27.51544189 C0.68115234 29.51660156 0.68115234 29.51660156 0 33 C-3.03662109 35.47558594 -3.03662109 35.47558594 -6 37 C-4.95380493 37.57947388 -4.95380493 37.57947388 -3.88647461 38.1706543 C8.53533221 45.05381699 20.94912951 51.94973468 33.3125 58.9375 C34.25480469 59.46770752 35.19710937 59.99791504 36.16796875 60.54418945 C40.2557915 62.85011287 44.32220275 65.17522432 48.328125 67.62109375 C48.96967529 68.00724854 49.61122559 68.39340332 50.2722168 68.79125977 C51.90963709 69.78246509 53.53554048 70.79263177 55.16015625 71.8046875 C58.83240557 73.35036603 60.19080205 73.20601847 64 72 C67.50827204 70.34527711 70.87419088 68.47059147 74.25 66.5625 C75.22654541 66.01972412 76.20309082 65.47694824 77.20922852 64.91772461 C79.20356959 63.80824144 81.19585417 62.69505332 83.18603516 61.578125 C85.66440913 60.18820574 88.14825406 58.8092409 90.63671875 57.4375 C102.81127749 50.72054927 114.90318361 43.85561752 127 37 C126.1850708 36.49694336 125.3701416 35.99388672 124.53051758 35.47558594 C122 33 122 33 121.43237305 29.51660156 C121.4331597 28.14102198 121.46112647 26.76527413 121.51171875 25.390625 C121.52233086 24.30041046 121.52233086 24.30041046 121.53315735 23.18817139 C121.5610727 20.87438543 121.62379617 18.56305002 121.6875 16.25 C121.71258701 14.67842046 121.73539949 13.10680284 121.75585938 11.53515625 C121.81088868 7.6891648 121.89713334 3.84499735 122 0 C125.84463994 1.44504824 129.36225301 3.21269173 132.953125 5.203125 C133.52242233 5.51769653 134.09171967 5.83226807 134.67826843 6.15637207 C136.53717396 7.18461389 138.39365634 8.21714132 140.25 9.25 C141.54230757 9.96663641 142.83470778 10.6831058 144.12719727 11.39941406 C147.43864224 13.23591681 150.74775429 15.07658186 154.05621338 16.91845703 C155.93962377 17.96640604 157.82388957 19.01279763 159.70849609 20.05859375 C163.12023167 21.95202375 166.52920684 23.85037928 169.9375 25.75 C171.48002441 26.60706543 171.48002441 26.60706543 173.05371094 27.48144531 C177.83519423 30.15529055 182.50483162 32.8663124 187 36 C184.25208214 38.95984464 181.66677006 40.93618906 178.09765625 42.8125 C177.13585449 43.32433838 176.17405273 43.83617676 175.18310547 44.36352539 C174.15330566 44.90356201 173.12350586 45.44359863 172.0625 46 C169.87782254 47.16333171 167.69424753 48.32873588 165.51171875 49.49609375 C164.41520996 50.08245605 163.31870117 50.66881836 162.18896484 51.27294922 C157.5387239 53.79138472 152.95394536 56.41724716 148.375 59.0625 C141.34161442 63.11682087 134.26256431 67.06949869 127.125 70.9375 C118.69830525 75.50533842 110.33585226 80.17521289 102.00146484 84.90917969 C92.93440102 90.05380982 83.81973671 95.11096247 74.69458008 100.15161133 C73.6042749 100.75513428 72.51396973 101.35865723 71.390625 101.98046875 C70.42157227 102.51567139 69.45251953 103.05087402 68.45410156 103.60229492 C66.59285288 104.66234752 64.78221176 105.81185883 63 107 C58.04378914 106.71333719 54.50339678 105.52046104 50.21875 103.078125 C49.14157715 102.47154053 48.0644043 101.86495605 46.95458984 101.23999023 C45.8145752 100.58329346 44.67456055 99.92659668 43.5 99.25 C42.29306765 98.56545132 41.08553866 97.88195362 39.87744141 97.19946289 C37.42034726 95.80907642 34.96689448 94.41259105 32.51660156 93.01025391 C28.4079673 90.65908872 24.28466745 88.33418847 20.16113281 86.00927734 C17.34778605 84.42214744 14.5369795 82.83059237 11.7265625 81.23828125 C-1.91181218 73.51831374 -15.59755512 65.88244445 -29.30444336 58.28491211 C-41.92689552 51.28814011 -54.49404701 44.20298905 -67 37 C-64.58451251 34.29284992 -62.02738043 32.78570304 -58.828125 31.1015625 C-57.78221191 30.54605713 -56.73629883 29.99055176 -55.65869141 29.41821289 C-54.53382324 28.82645264 -53.40895508 28.23469238 -52.25 27.625 C-49.88697017 26.36779968 -47.52475734 25.10922033 -45.1640625 23.84765625 C-44.5652829 23.52802414 -43.9665033 23.20839203 -43.34957886 22.8790741 C-37.39356909 19.6915366 -31.50128905 16.39458296 -25.625 13.0625 C-24.67560547 12.52488037 -23.72621094 11.98726074 -22.74804688 11.43334961 C-16.81754986 8.0630326 -10.93058287 4.63066675 -5.109375 1.07421875 C-3 0 -3 0 0 0 Z " fill="#56BA4E" transform="translate(453,374)"/>
<path d="M0 0 C0 43.56 0 87.12 0 132 C-10.56 137.61 -21.12 143.22 -32 149 C-37.17524839 151.85166748 -42.34220529 154.7086329 -47.49414062 157.60058594 C-52.96169273 160.65397728 -58.45218845 163.66616005 -63.9375 166.6875 C-71.44968599 170.82538521 -78.9576608 174.97018892 -86.4453125 179.15234375 C-87.65372524 179.82658232 -88.86213992 180.50081739 -90.07055664 181.17504883 C-92.32100996 182.43173419 -94.57028909 183.69052574 -96.81811523 184.9519043 C-97.84880127 185.527229 -98.8794873 186.10255371 -99.94140625 186.6953125 C-100.82513916 187.19047363 -101.70887207 187.68563477 -102.61938477 188.19580078 C-107.69136522 190.90266404 -112.85785302 193.42892651 -118 196 C-118 175.54 -118 155.08 -118 134 C-111.1628125 130.3184375 -111.1628125 130.3184375 -104.1875 126.5625 C-102.03577271 125.4014978 -102.03577271 125.4014978 -99.84057617 124.21704102 C-98.71111572 123.61045654 -97.58165527 123.00387207 -96.41796875 122.37890625 C-94.68196411 121.44413452 -94.68196411 121.44413452 -92.91088867 120.49047852 C-90 119 -90 119 -87 118 C-87 126.91 -87 135.82 -87 145 C-69.81819916 135.91335855 -52.72068272 126.73139829 -35.86230469 117.05297852 C-34.59312451 116.33536261 -33.3040831 115.65204155 -32 115 C-32.03854599 113.78858841 -32.07709198 112.57717682 -32.11680603 111.32905579 C-32.46618663 99.86979746 -32.69240872 88.41371203 -32.80052853 76.94956684 C-32.86000964 71.05566406 -32.96162229 65.16899442 -33.16235352 59.27807617 C-34.46053719 19.89509927 -34.46053719 19.89509927 -28.74346924 12.60345459 C-23.41725214 7.74095503 -17.55952147 5.3406615 -10.61233521 3.65560913 C-6.92484429 2.73017172 -3.7519528 0 0 0 Z " fill="#3C4244" transform="translate(641,427)"/>
<path d="M0 0 C0.33 0 0.66 0 1 0 C1.33 19.8 1.66 39.6 2 60 C20.15304297 50.21252979 20.15304297 50.21252979 38.125 40.125 C46.29118081 35.46654427 54.51207529 31.0453714 63 27 C63 27.66 63 28.32 63 29 C64.81564453 29.11601563 64.81564453 29.11601563 66.66796875 29.234375 C73.16858797 29.96132597 79.15311351 32.13174688 85.3125 34.25 C86.45912109 34.63285156 87.60574219 35.01570312 88.78710938 35.41015625 C96.33233739 37.96366296 103.6889952 40.83947452 111 44 C111 44.66 111 45.32 111 46 C82.00933046 59.22695001 52.66416858 71.6198216 23.1015625 83.51171875 C18.96338918 85.18216798 14.8616487 86.91787551 10.7734375 88.70703125 C9.77763672 89.1357251 8.78183594 89.56441895 7.75585938 90.00610352 C5.90870347 90.80366787 4.06808439 91.61665087 2.23632812 92.44897461 C-6.59115111 96.22415636 -12.21817153 94.81350772 -21.03515625 91.41015625 C-23.72035345 90.31627426 -26.39139035 89.19025404 -29.0625 88.0625 C-30.50243194 87.46432874 -31.94278631 86.86717346 -33.38354492 86.27099609 C-36.26558016 85.07623197 -39.14477585 83.8750128 -42.02148438 82.66748047 C-45.40989959 81.24536555 -48.80465149 79.83934787 -52.203125 78.44140625 C-64.32687976 73.44356517 -76.38376324 68.28881465 -88.4375 63.125 C-89.19656647 62.79985413 -89.95563293 62.47470825 -90.73770142 62.13970947 C-100.51089562 57.95095126 -110.25820368 53.71470507 -119.9375 49.3125 C-121.31228516 48.68794922 -121.31228516 48.68794922 -122.71484375 48.05078125 C-124.15356417 47.38921579 -125.58364261 46.70817869 -127 46 C-127 45.34 -127 44.68 -127 44 C-116.92742568 39.51083039 -106.72754895 35.81460683 -96.1875 32.5625 C-95.04877441 32.20865234 -93.91004883 31.85480469 -92.73681641 31.49023438 C-84.5153446 29 -84.5153446 29 -80 29 C-79.67 28.34 -79.34 27.68 -79 27 C-65.39747398 34.25873234 -51.83807285 41.57086002 -38.44311523 49.20776367 C-29.66655455 54.21137945 -20.83452904 59.09192831 -12 64 C-11.67 46.51 -11.34 29.02 -11 11 C-3 12 -3 12 0 13 C0 8.71 0 4.42 0 0 Z " fill="#D3D4D4" transform="translate(522,562)"/>
<path d="M0 0 C3.79610175 1.46427625 5.02876748 3.24308854 6.92578125 6.78515625 C7.46831543 7.7795874 8.01084961 8.77401855 8.56982422 9.79858398 C9.14490723 10.87567627 9.71999023 11.95276855 10.3125 13.0625 C11.54721498 15.32746858 12.78561759 17.59043006 14.02734375 19.8515625 C14.34693054 20.43455612 14.66651733 21.01754974 14.99578857 21.61820984 C19.22235165 29.28427786 23.80118998 36.73971225 28.3762207 44.20141602 C28.98167725 45.19584717 29.58713379 46.19027832 30.2109375 47.21484375 C30.75024902 48.09261475 31.28956055 48.97038574 31.84521484 49.87475586 C33 52 33 52 33 54 C31.08302063 53.85833643 29.16642277 53.71150416 27.25 53.5625 C26.18265625 53.48128906 25.1153125 53.40007812 24.015625 53.31640625 C21 53 21 53 17 52 C17 79.39 17 106.78 17 135 C12.8299354 133.60997847 8.9784481 132.19186238 4.98046875 130.43359375 C3.87638672 129.94826172 2.77230469 129.46292969 1.63476562 128.96289062 C0.49716797 128.45951172 -0.64042969 127.95613281 -1.8125 127.4375 C-2.96943359 126.93025391 -4.12636719 126.42300781 -5.31835938 125.90039062 C-13.87137277 122.12862723 -13.87137277 122.12862723 -15 121 C-15.09494733 118.62699131 -15.12559319 116.28321297 -15.11352539 113.90991211 C-15.11367142 113.16849472 -15.11381744 112.42707733 -15.1139679 111.66319275 C-15.11326865 109.20121379 -15.10547574 106.73930957 -15.09765625 104.27734375 C-15.09579211 102.57483461 -15.09436819 100.87232493 -15.09336853 99.16981506 C-15.08954302 94.68006927 -15.07971247 90.19035562 -15.06866455 85.70062256 C-15.05845113 81.12268509 -15.05387106 76.54474244 -15.04882812 71.96679688 C-15.03809022 62.97784816 -15.02049316 53.98893178 -15 45 C-19.95 44.34 -24.9 43.68 -30 43 C-30 39.53466705 -29.44757832 38.88424678 -27.4296875 36.18359375 C-26.86926758 35.42755859 -26.30884766 34.67152344 -25.73144531 33.89257812 C-25.11881836 33.08240234 -24.50619141 32.27222656 -23.875 31.4375 C-23.25206055 30.60283203 -22.62912109 29.76816406 -21.98730469 28.90820312 C-15.87075936 20.74667748 -9.6054932 12.69961943 -3.29003906 4.69140625 C-2.13171731 3.17269824 -1.05948947 1.5892342 0 0 Z " fill="#58B850" transform="translate(548,283)"/>
<path d="M0 0 C3.0652575 2.84298686 5.13397936 5.63119767 7.1796875 9.26953125 C8.06901978 10.83477539 8.06901978 10.83477539 8.97631836 12.43164062 C9.6028833 13.54732422 10.22944824 14.66300781 10.875 15.8125 C12.20457655 18.15379323 13.53580283 20.49400625 14.87109375 22.83203125 C15.20973953 23.4256546 15.54838531 24.01927795 15.89729309 24.63088989 C20.02823224 31.8416318 24.391116 38.90954642 28.78271484 45.96411133 C29.33781738 46.86282959 29.89291992 47.76154785 30.46484375 48.6875 C30.955896 49.47511719 31.44694824 50.26273437 31.95288086 51.07421875 C33 53 33 53 33 55 C27.36487141 54.39623622 22.62678937 53.40669734 17 52 C17 70.48 17 88.96 17 108 C6.24098352 103.90132705 -4.51869825 99.76422807 -15 95 C-15 78.83 -15 62.66 -15 46 C-19.95 45.34 -24.9 44.68 -30 44 C-30 39.81483836 -29.85199969 39.30381807 -27.5 36.19140625 C-26.94973145 35.4538208 -26.39946289 34.71623535 -25.83251953 33.95629883 C-24.92542236 32.77136841 -24.92542236 32.77136841 -24 31.5625 C-23.38366699 30.74225342 -22.76733398 29.92200684 -22.13232422 29.0769043 C-20.09853403 26.37662697 -18.05017155 23.68785661 -16 21 C-14.50233219 19.02624801 -13.00493948 17.05228725 -11.5078125 15.078125 C-7.68372049 10.04298621 -3.84655296 5.01799633 0 0 Z " fill="#56B84F" transform="translate(478,307)"/>
<path d="M0 0 C1.91015625 1.10546875 1.91015625 1.10546875 4.72265625 3.10546875 C5.05265625 2.11546875 5.38265625 1.12546875 5.72265625 0.10546875 C10.01265625 0.10546875 14.30265625 0.10546875 18.72265625 0.10546875 C18.79732288 5.35242674 18.85150046 10.59906918 18.88745117 15.84643555 C18.90245268 17.62806594 18.92286058 19.40965994 18.94897461 21.19116211 C18.98574134 23.7655541 19.0024691 26.33945405 19.015625 28.9140625 C19.03110886 29.69881454 19.04659271 30.48356659 19.06254578 31.292099 C19.06466209 38.39130034 17.42030433 44.37894305 13.66015625 50.41796875 C6.78204153 56.710712 -0.73568713 57.75671484 -9.85546875 57.5078125 C-14.78024995 56.92875718 -18.89225267 55.36143503 -23.27734375 53.10546875 C-23.93734375 52.77546875 -24.59734375 52.44546875 -25.27734375 52.10546875 C-24.21859301 48.70234137 -23.26832221 46.09193644 -21.27734375 43.10546875 C-18.89170298 43.68131307 -16.61051591 44.3277447 -14.27734375 45.10546875 C-11.96883122 45.27657357 -9.65422874 45.37182676 -7.33984375 45.41796875 C-5.50099609 45.47404297 -5.50099609 45.47404297 -3.625 45.53125 C-0.22061824 45.38214254 -0.22061824 45.38214254 2.1484375 43.2578125 C4.04587221 40.66355313 4.07199117 39.24948306 3.72265625 36.10546875 C3.02785156 36.59015625 2.33304688 37.07484375 1.6171875 37.57421875 C-3.44803842 40.25379845 -8.69706328 39.82659195 -14.27734375 39.10546875 C-20.40047443 36.76597071 -24.31073266 32.54703815 -27.52734375 26.91796875 C-29.28882802 20.31240275 -29.09030901 13.94253639 -25.6875 7.9296875 C-19.62418848 0.08601305 -9.53506645 -3.74533485 0 0 Z " fill="#43474A" transform="translate(556.27734375,707.89453125)"/>
<path d="M0 0 C4.29 0 8.58 0 13 0 C13 18.81 13 37.62 13 57 C8.71 57 4.42 57 0 57 C0 56.01 0 55.02 0 54 C-1.11375 54.66 -2.2275 55.32 -3.375 56 C-8.29590957 58.42139995 -12.59749446 58.96025987 -18 58 C-24.03858763 55.77923616 -28.02950021 52.82217958 -31 47 C-33.73293888 40.98753446 -34.16843439 34.593979 -32.125 28.30859375 C-29.44685454 22.39729242 -26.61341509 19.22251607 -21 16 C-18.18171822 15.06057274 -16.18778331 14.77417373 -13.25 14.6875 C-12.02023437 14.63142578 -12.02023437 14.63142578 -10.765625 14.57421875 C-8 15 -8 15 -1 19 C-0.67 12.73 -0.34 6.46 0 0 Z " fill="#42474A" transform="translate(406,692)"/>
<path d="M0 0 C8.39497114 4.05450552 8.39497114 4.05450552 10.2109375 8.80078125 C9.14200532 9.83668463 8.05515262 10.85412067 6.9609375 11.86328125 C6.35765625 12.43175781 5.754375 13.00023437 5.1328125 13.5859375 C3.2109375 14.80078125 3.2109375 14.80078125 1.10546875 14.58203125 C-0.7890625 13.80078125 -0.7890625 13.80078125 -2.8515625 12.23828125 C-7.86614913 9.7843346 -13.65153043 9.747386 -18.953125 11.52734375 C-22.84218554 13.56289459 -25.30277071 15.6916216 -26.7890625 19.80078125 C-27.46520824 26.02894056 -27.52120388 31.5243055 -23.7890625 36.80078125 C-19.46544489 40.70258251 -17.05635987 41.94095835 -11.2890625 41.92578125 C-10.309375 41.92835938 -9.3296875 41.9309375 -8.3203125 41.93359375 C-5.79475196 41.97018178 -5.79475196 41.97018178 -3.7890625 40.80078125 C-3.47664879 38.25136752 -3.27602829 35.79716612 -3.1640625 33.23828125 C-3.12539063 32.52736328 -3.08671875 31.81644531 -3.046875 31.08398438 C-2.95234467 29.323357 -2.86960433 27.56210397 -2.7890625 25.80078125 C1.1709375 25.80078125 5.1309375 25.80078125 9.2109375 25.80078125 C9.2109375 33.06078125 9.2109375 40.32078125 9.2109375 47.80078125 C-1.59357002 53.20303501 -11.60674357 56.10597738 -23.6015625 52.73828125 C-31.45512338 49.65449771 -37.18125005 43.31060544 -40.7890625 35.80078125 C-42.94959386 29.24993936 -43.10147448 20.61713002 -40.1015625 14.36328125 C-39.36868084 13.15199072 -38.59879368 11.96210623 -37.7890625 10.80078125 C-37.0671875 9.74890625 -36.3453125 8.69703125 -35.6015625 7.61328125 C-32.05982729 4.07154604 -28.25008122 2.00061563 -23.7890625 -0.19921875 C-17.47447446 -3.35651277 -6.53545585 -2.06843809 0 0 Z " fill="#3E4448" transform="translate(302.7890625,696.19921875)"/>
<path d="M0 0 C2.89498459 2.65258157 4.74431271 5.23293814 6 9 C6.08358958 11.21089945 6.10731764 13.42426078 6.09765625 15.63671875 C6.09443359 16.93544922 6.09121094 18.23417969 6.08789062 19.57226562 C6.07953531 20.94401108 6.07107037 22.31575587 6.0625 23.6875 C6.05748335 25.07096195 6.05292073 26.45442563 6.04882812 27.83789062 C6.03702538 31.22527896 6.01908967 34.6126449 6 38 C1.71 38 -2.58 38 -7 38 C-7.33 37.34 -7.66 36.68 -8 36 C-8.763125 36.495 -9.52625 36.99 -10.3125 37.5 C-15.30435892 39.53058668 -19.67654428 39.71296282 -25 39 C-29.4331235 36.86260117 -32.12530646 34.5825842 -34 30 C-34.82639885 23.49210904 -34.82639885 23.49210904 -33.015625 20.22265625 C-30.7013944 17.30129725 -28.42536895 15.38433361 -25 14 C-22.89355469 13.77294922 -22.89355469 13.77294922 -20.671875 13.8046875 C-19.87265625 13.81113281 -19.0734375 13.81757812 -18.25 13.82421875 C-17.425 13.84097656 -16.6 13.85773437 -15.75 13.875 C-14.90953125 13.88402344 -14.0690625 13.89304687 -13.203125 13.90234375 C-11.13529396 13.92584183 -9.06761005 13.96171092 -7 14 C-8.86566488 10.37206002 -8.86566488 10.37206002 -12 8 C-13.76770327 7.87759865 -15.54060462 7.82448847 -17.3125 7.8125 C-18.25738281 7.79832031 -19.20226562 7.78414062 -20.17578125 7.76953125 C-23.14406882 8.01175665 -25.30867165 8.75973393 -28 10 C-29.32 7.03 -30.64 4.06 -32 1 C-21.99886064 -5.07912393 -10.27778506 -6.7486661 0 0 Z " fill="#42474A" transform="translate(661,711)"/>
<path d="M0 0 C1.10988281 -0.01417969 2.21976562 -0.02835938 3.36328125 -0.04296875 C8.68391533 0.32591187 13.43831179 1.94469847 17.6875 5.1875 C23.08315813 11.88760295 22.13961442 19.45557343 21.9375 27.625 C21.9174083 29.03838621 21.89916223 30.45179993 21.8828125 31.86523438 C21.83901817 35.30656683 21.77013903 38.74685575 21.6875 42.1875 C17.7275 42.1875 13.7675 42.1875 9.6875 42.1875 C9.6875 40.8675 9.6875 39.5475 9.6875 38.1875 C9.22601563 38.5484375 8.76453125 38.909375 8.2890625 39.28125 C3.54673409 42.65523859 -0.07305739 43.93287682 -5.9140625 43.609375 C-10.76612717 42.75591737 -14.00398825 40.70706203 -17.25 36.9375 C-18.66522351 33.27456856 -19.11428529 30.01658676 -18.3125 26.1875 C-16.60806679 22.99607155 -14.39470441 20.77634652 -11.1875 19.03125 C-7.24700833 17.87480136 -3.58095872 17.97356041 0.5 18.0625 C1.68239258 18.07603516 1.68239258 18.07603516 2.88867188 18.08984375 C4.82174666 18.11327496 6.7546638 18.14914162 8.6875 18.1875 C6.93295615 15.00515895 6.93295615 15.00515895 4.6875 12.1875 C2.77397154 12.06130104 0.85514977 12.01169299 -1.0625 12 C-2.10921875 11.98582031 -3.1559375 11.97164062 -4.234375 11.95703125 C-7.33330677 12.18905787 -9.51526014 12.87694133 -12.3125 14.1875 C-13.6325 11.2175 -14.9525 8.2475 -16.3125 5.1875 C-10.58676179 1.83848331 -6.77325418 0.03906144 0 0 Z " fill="#424649" transform="translate(445.3125,706.8125)"/>
<path d="M0 0 C2.9103491 2.64132523 5.24094093 5.48188187 7 9 C7.08573394 11.25120742 7.10712188 13.50499303 7.09765625 15.7578125 C7.0962413 16.42086395 7.09482635 17.08391541 7.09336853 17.76705933 C7.08776754 19.88641863 7.075215 22.00567259 7.0625 24.125 C7.05748512 25.56119639 7.05292219 26.99739444 7.04882812 28.43359375 C7.03779782 31.95576345 7.02053259 35.47787145 7 39 C3.04 39 -0.92 39 -5 39 C-5 37.68 -5 36.36 -5 35 C-6.3921875 35.9590625 -6.3921875 35.9590625 -7.8125 36.9375 C-13.10683658 40.3632472 -17.83414171 40.69149813 -24 40 C-28.40830916 37.83592096 -31.12843553 35.57493538 -33 31 C-33.82072933 24.53675656 -33.82072933 24.53675656 -32.05078125 21.22265625 C-29.4300589 17.84134572 -27.03614 16.18451935 -23 15 C-20.05644761 14.7716613 -17.13751627 14.81070794 -14.1875 14.875 C-13.00510742 14.88853516 -13.00510742 14.88853516 -11.79882812 14.90234375 C-9.86575334 14.92577496 -7.9328362 14.96164162 -6 15 C-7.75454385 11.81765895 -7.75454385 11.81765895 -10 9 C-11.91352846 8.87380104 -13.83235023 8.82419299 -15.75 8.8125 C-16.79671875 8.79832031 -17.8434375 8.78414062 -18.921875 8.76953125 C-22.02080677 9.00155787 -24.20276014 9.68944133 -27 11 C-30.22265625 5.82421875 -30.22265625 5.82421875 -31 4 C-30 1 -30 1 -27.25 -0.625 C-18.74293389 -4.22414335 -8.26266679 -4.54131305 0 0 Z " fill="#42464A" transform="translate(754,710)"/>
<path d="M0 0 C4.29 0 8.58 0 13 0 C15.67319237 5.80464629 18.30368713 11.62220985 20.8125 17.5 C21.44091797 18.96953125 21.44091797 18.96953125 22.08203125 20.46875 C23 23 23 23 23 26 C23.66 26 24.32 26 25 26 C25.14695312 25.45214844 25.29390625 24.90429688 25.4453125 24.33984375 C27.03037546 18.73746606 28.96552581 13.33876703 31.125 7.9375 C31.39070801 7.27032959 31.65641602 6.60315918 31.93017578 5.91577148 C33.86871061 1.13128939 33.86871061 1.13128939 35 0 C37.01964199 -0.07244053 39.04167124 -0.08377188 41.0625 -0.0625 C42.71958984 -0.04896484 42.71958984 -0.04896484 44.41015625 -0.03515625 C45.26480469 -0.02355469 46.11945312 -0.01195312 47 0 C46.33908403 4.05346114 45.06927142 7.55472977 43.48828125 11.33984375 C43.11221992 12.24495445 43.11221992 12.24495445 42.7285614 13.16835022 C41.9274829 15.09321569 41.12003627 17.01533621 40.3125 18.9375 C39.78930897 20.19319089 39.2665193 21.44904908 38.74414062 22.70507812 C37.43825436 25.84011581 36.12213199 28.97071865 34.80108643 32.09939575 C33.98207172 34.04253545 33.16857596 35.98793563 32.35498047 37.93334961 C31.82419288 39.19267192 31.2931164 40.4518725 30.76171875 41.7109375 C30.29080811 42.83161621 29.81989746 43.95229492 29.3347168 45.10693359 C27.10737761 49.93480434 24.71446755 52.80385985 20.3125 55.875 C14.44100037 57.86909421 8.62625032 57.94982265 2.875 55.5 C1.92625 55.005 0.9775 54.51 0 54 C1.05875074 50.59687262 2.00902154 47.98646769 4 45 C6.6015625 44.70703125 6.6015625 44.70703125 9.625 44.8125 C11.12933594 44.85310547 11.12933594 44.85310547 12.6640625 44.89453125 C13.43492187 44.92933594 14.20578125 44.96414063 15 45 C16.72396795 40.04676342 14.90869582 36.54325042 12.8515625 32.03125 C12.35358658 30.8943573 12.35358658 30.8943573 11.84555054 29.73449707 C10.78449048 27.31726993 9.70579862 24.90845819 8.625 22.5 C7.55427418 20.09038547 6.48742224 17.67917429 5.4258728 15.26550293 C4.7652205 13.76585907 4.09882012 12.26873064 3.42593384 10.77453613 C1.79772018 7.10345007 0.79674203 3.98371015 0 0 Z " fill="#404548" transform="translate(672,708)"/>
<path d="M0 0 C4.15639355 2.41882203 6.46774179 4.67997383 8.62109375 9.046875 C8.96166992 12.55200195 8.96166992 12.55200195 8.9140625 16.53515625 C8.90981766 17.23835495 8.90557281 17.94155365 8.90119934 18.6660614 C8.88449435 20.89756631 8.84685989 23.12814613 8.80859375 25.359375 C8.79353623 26.8782421 8.77984969 28.39712346 8.76757812 29.91601562 C8.73461848 33.62659934 8.68289391 37.33664678 8.62109375 41.046875 C4.33109375 41.046875 0.04109375 41.046875 -4.37890625 41.046875 C-4.42789062 39.12101563 -4.476875 37.19515625 -4.52734375 35.2109375 C-4.60235975 32.69790155 -4.67790807 30.18488144 -4.75390625 27.671875 C-4.78484375 26.40085937 -4.81578125 25.12984375 -4.84765625 23.8203125 C-4.88632812 22.60859375 -4.925 21.396875 -4.96484375 20.1484375 C-4.99626465 19.02775879 -5.02768555 17.90708008 -5.06005859 16.75244141 C-5.11301828 13.89977088 -5.11301828 13.89977088 -7.37890625 12.046875 C-9.48308593 11.69047939 -9.48308593 11.69047939 -11.81640625 11.734375 C-12.59886719 11.71761719 -13.38132812 11.70085938 -14.1875 11.68359375 C-16.98594686 12.1475074 -17.67855331 12.7906489 -19.37890625 15.046875 C-19.88497985 17.8497479 -19.88497985 17.8497479 -19.890625 21.02734375 C-19.92607422 22.19072266 -19.96152344 23.35410156 -19.99804688 24.55273438 C-20.03188477 26.37514648 -20.03188477 26.37514648 -20.06640625 28.234375 C-20.10056641 29.46091797 -20.13472656 30.68746094 -20.16992188 31.95117188 C-20.25249401 34.98274877 -20.31737355 38.01479809 -20.37890625 41.046875 C-24.66890625 41.046875 -28.95890625 41.046875 -33.37890625 41.046875 C-33.37890625 27.516875 -33.37890625 13.986875 -33.37890625 0.046875 C-29.41890625 0.046875 -25.45890625 0.046875 -21.37890625 0.046875 C-21.04890625 1.036875 -20.71890625 2.026875 -20.37890625 3.046875 C-19.45078125 2.386875 -18.52265625 1.726875 -17.56640625 1.046875 C-12.08779841 -2.04731849 -5.84531567 -2.34196556 0 0 Z " fill="#414649" transform="translate(511.37890625,707.953125)"/>
<path d="M0 0 C4.29 0 8.58 0 13 0 C13.03738281 1.83046875 13.07476562 3.6609375 13.11328125 5.546875 C13.1789353 7.94793735 13.24538283 10.3489781 13.3125 12.75 C13.33505859 13.9565625 13.35761719 15.163125 13.38085938 16.40625 C13.41630859 17.56640625 13.45175781 18.7265625 13.48828125 19.921875 C13.51446533 20.99018555 13.54064941 22.05849609 13.56762695 23.15917969 C14.04959851 26.32587706 14.74442626 27.75009437 17 30 C20.42923043 30.51073645 22.28442457 30.4061374 25.3125 28.6875 C28.30535132 25.69464868 28.16736575 22.48112472 28.31640625 18.45703125 C28.35830078 17.38388672 28.40019531 16.31074219 28.44335938 15.20507812 C28.48267578 14.08552734 28.52199219 12.96597656 28.5625 11.8125 C28.60568359 10.68134766 28.64886719 9.55019531 28.69335938 8.38476562 C28.7994901 5.58998975 28.90025397 2.79501102 29 0 C33.29 0 37.58 0 42 0 C42 13.53 42 27.06 42 41 C38.04 41 34.08 41 30 41 C30 39.68 30 38.36 30 37 C29.53851563 37.3609375 29.07703125 37.721875 28.6015625 38.09375 C23.08654085 42.01748082 18.70523854 43.01423776 12 42 C6.32541022 40.07278083 2.67949129 36.35898258 0 31 C-0.08586809 28.67583704 -0.10711043 26.34916693 -0.09765625 24.0234375 C-0.09553383 22.99556625 -0.09553383 22.99556625 -0.09336853 21.94692993 C-0.08776675 19.75624239 -0.07521406 17.5656567 -0.0625 15.375 C-0.05748522 13.89062648 -0.05292228 12.40625135 -0.04882812 10.921875 C-0.03779677 7.28121685 -0.02053099 3.64061836 0 0 Z " fill="#3F4448" transform="translate(323,708)"/>
<path d="M0 0 C10.89 0 21.78 0 33 0 C33.09198455 6.01476741 33.17157646 12.02708101 33.21972656 18.04199219 C33.2398042 20.0866728 33.26707225 22.13129627 33.30175781 24.17578125 C33.35044519 27.11993537 33.37300744 30.06332834 33.390625 33.0078125 C33.41127014 33.9174173 33.43191528 34.82702209 33.45318604 35.76419067 C33.45515339 41.36714269 32.75907302 44.56456885 29 49 C23.07986078 54.34256466 17.56686266 54.58618552 9.82421875 54.41796875 C4.43857028 53.82934323 0.7443849 51.89630505 -3 48 C-4.23046875 45.796875 -4.23046875 45.796875 -5 44 C-3.625 42.5 -3.625 42.5 -2 41 C-1.34 41 -0.68 41 0 41 C0.33 40.01 0.66 39.02 1 38 C3.5011748 38.44663836 4.82756946 38.84604416 6.75 40.5625 C10.26575193 42.80867484 12.87405927 42.39928459 17 42 C19.35709642 38.46435537 19.30009735 36.77974745 19.4140625 32.58203125 C19.45273437 31.32841797 19.49140625 30.07480469 19.53125 28.78320312 C19.5621875 27.47287109 19.593125 26.16253906 19.625 24.8125 C19.66319338 23.4771884 19.70224591 22.14190108 19.7421875 20.80664062 C19.83658885 17.53799389 19.91938832 14.26901588 20 11 C13.4 11 6.8 11 0 11 C0 7.37 0 3.74 0 0 Z " fill="#41464A" transform="translate(585,696)"/>
<path d="M0 0 C2.05859375 0.69921875 2.05859375 0.69921875 4.62109375 2.76171875 C6.48571152 6.57202463 6.76697551 9.53325933 6.05859375 13.69921875 C4.4217219 17.28474756 3.36886792 18.4923693 0.05859375 20.69921875 C-7.06005032 21.37718485 -7.06005032 21.37718485 -10.37890625 18.82421875 C-13.22777502 14.94975723 -13.40855229 11.93229546 -13.33984375 7.19140625 C-12.90669166 4.48208237 -12.44671652 3.41159399 -10.50390625 1.51171875 C-6.48844911 -0.53123313 -4.35323338 -0.80017275 0 0 Z " fill="#E6E7E6" transform="translate(399.94140625,718.30078125)"/>
<path d="M0 0 C4.56944444 2.13888889 4.56944444 2.13888889 6 5 C6.47844415 8.0826338 6.55149629 10.92434762 6 14 C2.95666217 17.63715985 1.12108584 18.82298645 -3.5625 19.5625 C-7.52374737 18.91429589 -9.18799374 17.81200626 -12 15 C-13.61588379 11.76823243 -13.57451407 8.49384717 -13 5 C-9.51956715 -0.22064927 -5.89847185 -1.12011385 0 0 Z " fill="#E5E5E3" transform="translate(555,718)"/>
<path d="M0 0 C4 1 4 1 12 5 C12 15.89 12 26.78 12 38 C8.535 36.515 8.535 36.515 5 35 C5.309375 34.278125 5.61875 33.55625 5.9375 32.8125 C7.97947133 27.76954616 7.97947133 27.76954616 6.99609375 22.64404297 C6.48175781 21.85143066 5.96742188 21.05881836 5.4375 20.2421875 C4.88835938 19.36949219 4.33921875 18.49679687 3.7734375 17.59765625 C3.18820312 16.69917969 2.60296875 15.80070312 2 14.875 C0.84503887 13.08659103 -0.3012686 11.29255415 -1.4375 9.4921875 C-1.95183594 8.70183105 -2.46617187 7.91147461 -2.99609375 7.09716797 C-4 5 -4 5 -3 2 C-2.01 1.34 -1.02 0.68 0 0 Z " fill="#5BBC56" transform="translate(511,333)"/>
<path d="M0 0 C1.09054687 0.02320313 2.18109375 0.04640625 3.3046875 0.0703125 C4.40039062 0.08835937 5.49609375 0.10640625 6.625 0.125 C7.46804688 0.14820313 8.31109375 0.17140625 9.1796875 0.1953125 C8.57146944 5.66927507 8.57146944 5.66927507 6.92578125 7.87890625 C4.67059177 9.5791274 3.34920988 9.53633929 0.5546875 9.4453125 C-0.64027344 9.42210937 -0.64027344 9.42210937 -1.859375 9.3984375 C-3.8203125 9.1953125 -3.8203125 9.1953125 -4.8203125 8.1953125 C-5.0078125 5.2578125 -5.0078125 5.2578125 -4.8203125 2.1953125 C-2.8203125 0.1953125 -2.8203125 0.1953125 0 0 Z " fill="#DFE0DF" transform="translate(644.8203125,731.8046875)"/>
<path d="M0 0 C1.09054687 0.02320313 2.18109375 0.04640625 3.3046875 0.0703125 C4.40039062 0.08835937 5.49609375 0.10640625 6.625 0.125 C7.46804688 0.14820313 8.31109375 0.17140625 9.1796875 0.1953125 C9.3671875 4.90625 9.3671875 4.90625 7.6796875 7.5078125 C3.98482295 10.00184607 1.59076865 9.62219132 -2.8203125 9.1953125 C-4.8203125 7.1953125 -4.8203125 7.1953125 -5.0703125 4.6953125 C-4.69833647 0.97555224 -3.68329698 0.25507597 0 0 Z " fill="#DEE0DE" transform="translate(444.8203125,731.8046875)"/>
<path d="M0 0 C1.09054687 0.02320313 2.18109375 0.04640625 3.3046875 0.0703125 C4.40039062 0.08835937 5.49609375 0.10640625 6.625 0.125 C7.46804688 0.14820313 8.31109375 0.17140625 9.1796875 0.1953125 C8.85784333 3.09191003 8.56560262 5.51428581 7.1171875 8.0703125 C3.83315205 9.97717179 0.92796812 9.49279509 -2.8203125 9.1953125 C-4.8203125 7.1953125 -4.8203125 7.1953125 -5.0703125 4.6953125 C-4.69833647 0.97555224 -3.68329698 0.25507597 0 0 Z " fill="#E4E6E6" transform="translate(738.8203125,731.8046875)"/>
<path d="M0 0 C0.33 0 0.66 0 1 0 C1 27.39 1 54.78 1 83 C-0.32 82.67 -1.64 82.34 -3 82 C-3 81.34 -3 80.68 -3 80 C-2.01 80 -1.02 80 0 80 C0 53.6 0 27.2 0 0 Z " fill="#64BB62" transform="translate(564,335)"/>
<path d="M0 0 C0.33 0 0.66 0 1 0 C1 4.95 1 9.9 1 15 C-0.98 14.01 -2.96 13.02 -5 12 C-4.360625 11.505 -3.72125 11.01 -3.0625 10.5 C-0.18484731 7.01193613 -0.29769264 4.46538959 0 0 Z " fill="#4FBE4D" transform="translate(522,356)"/>
<path d="M0 0 C0.99 0.33 1.98 0.66 3 1 C-0.75 5.875 -0.75 5.875 -3 7 C-3.40729228 9.32156597 -3.74438677 11.6568787 -4 14 C-4.33 14 -4.66 14 -5 14 C-5.602537 7.01057082 -5.602537 7.01057082 -3.88671875 4.1328125 C-2.66254412 2.69138998 -1.33721771 1.33721771 0 0 Z " fill="#494E4F" transform="translate(726,727)"/>
<path d="M0 0 C1.4540625 0.0309375 1.4540625 0.0309375 2.9375 0.0625 C2.2259375 0.68125 2.2259375 0.68125 1.5 1.3125 C-0.22516518 3.244685 -0.62834875 4.54442275 -1.0625 7.0625 C-2.0525 7.0625 -3.0425 7.0625 -4.0625 7.0625 C-4.10504356 5.06295254 -4.10330783 3.06208364 -4.0625 1.0625 C-3.0625 0.0625 -3.0625 0.0625 0 0 Z " fill="#EAEAE9" transform="translate(644.0625,732.9375)"/>
<path d="M0 0 C0.66 0 1.32 0 2 0 C2 1.32 2 2.64 2 4 C5.96 4 9.92 4 14 4 C14 4.33 14 4.66 14 5 C9.71 5 5.42 5 1 5 C1 4.34 1 3.68 1 3 C0.01 2.67 -0.98 2.34 -2 2 C-1.34 1.34 -0.68 0.68 0 0 Z " fill="#BFC2C3" transform="translate(453,745)"/>
<path d="M0 0 C2.72426311 2.35277269 3.8141763 4.62496331 5 8 C3.68 8 2.36 8 1 8 C-0.35439668 5.29120665 -0.06501451 2.99066732 0 0 Z " fill="#62C05F" transform="translate(506,354)"/>
<path d="M0 0 C0.82638376 2.89234315 1 4.88742431 1 8 C-0.32 7.01 -1.64 6.02 -3 5 C-1.125 1.125 -1.125 1.125 0 0 Z " fill="#555B5C" transform="translate(583,737)"/>
<path d="M0 0 C0 0.66 0 1.32 0 2 C-1.95927063 3.7143618 -3.95880212 5.38405168 -6 7 C-6.33 5.68 -6.66 4.36 -7 3 C-3.375 0 -3.375 0 0 0 Z " fill="#68C164" transform="translate(514,333)"/>
<path d="M0 0 C0.66 0.33 1.32 0.66 2 1 C2 2.32 2 3.64 2 5 C0.35 4.67 -1.3 4.34 -3 4 C-2.67 3.01 -2.34 2.02 -2 1 C-1.34 0.67 -0.68 0.34 0 0 Z " fill="#4B4E51" transform="translate(726,710)"/>
<path d="M0 0 C0.66 0.33 1.32 0.66 2 1 C1.01 2.32 0.02 3.64 -1 5 C-2.32 4.67 -3.64 4.34 -5 4 C-3.35 2.68 -1.7 1.36 0 0 Z " fill="#E3ECDF" transform="translate(451,407)"/>
<path d="M0 0 C1.5 1.375 1.5 1.375 3 3 C3 3.66 3 4.32 3 5 C1.02 5 -0.96 5 -3 5 C-3 4.34 -3 3.68 -3 3 C-2.01 3 -1.02 3 0 3 C0 2.01 0 1.02 0 0 Z " fill="#71C76E" transform="translate(578,332)"/>
</svg>
