<?xml version="1.0" encoding="UTF-8"?>
<svg version="1.1" xmlns="http://www.w3.org/2000/svg" width="500" height="500">
<path d="M0 0 C165 0 330 0 500 0 C500 165 500 330 500 500 C335 500 170 500 0 500 C0 335 0 170 0 0 Z " fill="#E9EAEA" transform="translate(0,0)"/>
<path d="M0 0 C3.75332557 1.50133023 6.9751987 3.01048882 10.46484375 4.9765625 C11.50560059 5.56115234 12.54635742 6.14574219 13.61865234 6.74804688 C14.71387207 7.36744141 15.8090918 7.98683594 16.9375 8.625 C18.0610791 9.25728516 19.1846582 9.88957031 20.34228516 10.54101562 C27.26467946 14.44067441 34.16856865 18.37164433 41.05859375 22.328125 C44.87167299 24.49545291 48.72128065 26.59151438 52.578125 28.6796875 C55.74637206 30.40689316 58.87564258 32.19481571 62 34 C62 39.28 62 44.56 62 50 C55.25471242 47.75157081 55.25471242 47.75157081 52.08203125 45.828125 C51.39044922 45.41393311 50.69886719 44.99974121 49.98632812 44.57299805 C49.26896484 44.13640869 48.55160156 43.69981934 47.8125 43.25 C46.29896562 42.34373387 44.78464237 41.43878389 43.26953125 40.53515625 C42.53814941 40.0983252 41.80676758 39.66149414 41.05322266 39.21142578 C36.76973429 36.68411671 32.38108905 34.35202697 28 32 C26.33140372 31.08685051 24.66463494 30.17035105 23 29.25 C22.29875 28.86328125 21.5975 28.4765625 20.875 28.078125 C19.20896339 27.12015395 17.59904968 26.06603312 16 25 C16 35.56 16 46.12 16 57 C17.65 57.66 19.3 58.32 21 59 C22.68039059 59.86981757 24.34654344 60.76751274 26 61.6875 C30.38258657 64.10898371 34.77680286 66.50528139 39.1875 68.875 C40.84845703 69.76832031 40.84845703 69.76832031 42.54296875 70.6796875 C43.75919922 71.33324219 43.75919922 71.33324219 45 72 C45 70.02 45 68.04 45 66 C40.71 63.69 36.42 61.38 32 59 C32 53.39 32 47.78 32 42 C57.33898305 54.33898305 57.33898305 54.33898305 62 59 C62.01697335 61.81357112 61.9708943 64.59950927 61.87890625 67.41015625 C61.84348976 68.67320839 61.84348976 68.67320839 61.80735779 69.96177673 C61.73053055 72.66218131 61.64658888 75.36231271 61.5625 78.0625 C61.50929836 79.88865832 61.45655786 81.71483014 61.40429688 83.54101562 C61.27488979 88.02751809 61.13910001 92.51378801 61 97 C57.61611434 95.91793312 54.39351105 94.82753812 51.2578125 93.15234375 C50.59257568 92.79914063 49.92733887 92.4459375 49.24194336 92.08203125 C48.54335205 91.70433594 47.84476074 91.32664062 47.125 90.9375 C46.3832251 90.54046875 45.6414502 90.1434375 44.87719727 89.734375 C37.87373103 85.96870334 30.94223837 82.07756085 24.02783203 78.15136719 C20.48003657 76.13699163 16.92802373 74.13013513 13.375 72.125 C12.72394287 71.75568359 12.07288574 71.38636719 11.40209961 71.00585938 C10.78214111 70.65587891 10.16218262 70.30589844 9.5234375 69.9453125 C8.98638184 69.64125488 8.44932617 69.33719727 7.89599609 69.02392578 C5.29674488 67.62020964 2.64219998 66.32109999 0 65 C0 43.55 0 22.1 0 0 Z " fill="#3D4344" transform="translate(188,208)"/>
<path d="M0 0 C0.05394705 2.60444348 0.09364469 5.20776998 0.125 7.8125 C0.14175781 8.55048828 0.15851563 9.28847656 0.17578125 10.04882812 C0.21074628 13.91246426 0.19397555 15.70903668 -2 19 C1.84538716 21.32143347 5.70463638 23.6172087 9.57836914 25.89086914 C10.89263221 26.66694254 12.20294193 27.4497533 13.5090332 28.23950195 C15.39302491 29.37707409 17.2901547 30.48923334 19.19140625 31.59765625 C20.05591148 32.13036888 20.05591148 32.13036888 20.93788147 32.67384338 C25.3457795 35.1956146 28.13978105 35.28788995 33 34 C36.33118862 32.54250627 36.33118862 32.54250627 39.58984375 30.62109375 C40.17923233 30.28956802 40.76862091 29.9580423 41.37586975 29.61647034 C43.2358269 28.56713817 45.08659634 27.5027041 46.9375 26.4375 C48.20580175 25.71837987 49.47467734 25.00027082 50.74414062 24.28320312 C53.83614425 22.53376883 56.92010898 20.77069118 60 19 C59.01 17.515 59.01 17.515 58 16 C57.85778935 13.39754502 57.81197068 10.90882316 57.875 8.3125 C57.88402344 7.61060547 57.89304687 6.90871094 57.90234375 6.18554688 C57.92586296 4.45688475 57.96173287 2.72839855 58 1 C62.17391034 1.58434745 65.04190878 2.99997935 68.625 5.1875 C73.53123192 8.133659 78.48577267 10.93353706 83.52734375 13.640625 C86.05844432 15.03213052 88.53243835 16.4991575 91 18 C89.62556417 20.74887167 87.96739877 21.24658639 85.25390625 22.671875 C84.25504395 23.20361328 83.25618164 23.73535156 82.22705078 24.28320312 C80.62966064 25.13301758 80.62966064 25.13301758 79 26 C76.88142638 27.16700811 74.76558513 28.3389887 72.65234375 29.515625 C71.56050781 30.12253174 70.46867187 30.72943848 69.34375 31.35473633 C68.2196875 31.98017334 67.095625 32.60561035 65.9375 33.25 C64.15499526 34.24146598 62.37244132 35.23284344 60.58987427 36.22419739 C59.40793895 36.88152222 58.22603355 37.53890086 57.04415894 38.19633484 C53.48094815 40.1780134 49.91534613 42.15530428 46.34765625 44.12890625 C45.5182251 44.58813477 44.68879395 45.04736328 43.83422852 45.52050781 C42.32095146 46.35810452 40.80714861 47.19475226 39.29272461 48.03027344 C36.45436381 49.60258545 33.70163177 51.19891215 31 53 C24.77049685 53.12978132 20.92008561 50.26312327 15.8515625 46.875 C13.32197566 45.21171002 10.79408092 43.73600983 8.125 42.3125 C1.57870247 38.8129663 -4.84258368 35.10124674 -11.27832031 31.40380859 C-16.81575847 28.22859891 -22.373935 25.12615998 -28.0390625 22.18359375 C-30.01867562 20.98872767 -31.44869983 19.70445401 -33 18 C-25.40691803 12.4836584 -17.16121084 8.30180646 -8.85351562 3.99462891 C-7.24081727 3.12922676 -5.67034073 2.1860329 -4.109375 1.23046875 C-2 0 -2 0 0 0 Z " fill="#58B850" transform="translate(222,182)"/>
<path d="M0 0 C0.44246341 8.28366058 0.77880957 16.5623166 0.98443127 24.85490894 C1.08319634 28.7072682 1.2166907 32.55149676 1.43334961 36.39916992 C2.79306226 61.18555886 2.79306226 61.18555886 -1.78823853 67.44216919 C-6.17677231 71.25928275 -11.06200403 73.36351056 -16.54663086 75.15513611 C-20.41571954 76.4875297 -23.9477794 78.41444031 -27.5625 80.3125 C-28.86839647 80.95466798 -30.17565654 81.59407164 -31.484375 82.23046875 C-35.31999455 84.16106392 -38.96312747 86.29109236 -42.61328125 88.546875 C-45.372434 90.22675196 -48.17400196 91.81028181 -51 93.375 C-51.9075 93.87773437 -52.815 94.38046875 -53.75 94.8984375 C-56 96 -56 96 -58 96 C-58.14860594 91.80092955 -58.25732637 87.60326021 -58.32958984 83.40234375 C-58.35971791 81.97433814 -58.40063103 80.54651694 -58.45263672 79.11914062 C-58.52564914 77.0633399 -58.55948862 75.00998787 -58.5859375 72.953125 C-58.6173584 71.71723633 -58.6487793 70.48134766 -58.68115234 69.20800781 C-58 66 -58 66 -55.10498047 63.64453125 C-54.08033691 63.10183594 -53.05569336 62.55914062 -52 62 C-51.25234375 61.58234375 -50.5046875 61.1646875 -49.734375 60.734375 C-49.07953125 60.40953125 -48.4246875 60.0846875 -47.75 59.75 C-47.08484375 59.41484375 -46.4196875 59.0796875 -45.734375 58.734375 C-44 58 -44 58 -42 58 C-41.67 61.96 -41.34 65.92 -41 70 C-39.06227899 68.95874451 -37.12483814 67.91696766 -35.1875 66.875 C-34.60379639 66.56167725 -34.02009277 66.24835449 -33.41870117 65.92553711 C-28.63400242 63.3532509 -23.88276692 60.72342567 -19.14453125 58.06640625 C-17 57 -17 57 -15 57 C-15 40.83 -15 24.66 -15 8 C-1 0 -1 0 0 0 Z " fill="#3C4143" transform="translate(313,208)"/>
<path d="M0 0 C0.33 0 0.66 0 1 0 C1 9.9 1 19.8 1 30 C4.3 28.02 7.6 26.04 11 24 C14.32146579 22.29668421 17.64526969 20.63322396 21 19 C23.20937944 17.89792803 25.41770393 16.79373876 27.625 15.6875 C29.41666667 14.79166667 31.20833333 13.89583333 33 13 C33 13.66 33 14.32 33 15 C33.9075 15.0825 34.815 15.165 35.75 15.25 C42.52748114 16.22217967 50.23848043 17.89488359 55 23 C44.46375732 28.4497807 33.4574921 32.8934927 22.53564453 37.50341797 C20.30736117 38.44661484 18.08142271 39.39538948 15.85888672 40.35205078 C13.14154753 41.52160237 10.41636584 42.67015976 7.6875 43.8125 C6.90149414 44.15571289 6.11548828 44.49892578 5.30566406 44.85253906 C-3.10591657 48.30920174 -9.37807842 45.69706611 -17.51953125 42.46484375 C-22.09429714 40.53943723 -26.5838433 38.45327794 -31.07421875 36.33984375 C-34.00437281 34.9979975 -36.94642669 33.86019507 -39.9765625 32.7734375 C-47.18994627 30.01619814 -54.12534544 26.50218251 -61 23 C-58.79313824 20.50506 -57.00389113 19.429452 -53.83984375 18.4296875 C-52.6497168 18.04490234 -52.6497168 18.04490234 -51.43554688 17.65234375 C-50.61119141 17.39582031 -49.78683594 17.13929688 -48.9375 16.875 C-47.30042876 16.35266598 -45.66369331 15.829278 -44.02734375 15.3046875 C-43.30281006 15.07765137 -42.57827637 14.85061523 -41.83178711 14.61669922 C-39.93492784 14.02515352 -39.93492784 14.02515352 -38 13 C-35.38886834 14.40903725 -32.89248116 15.87500205 -30.375 17.4375 C-22.11443195 22.44525257 -13.6867736 26.77400203 -5 31 C-5 22.42 -5 13.84 -5 5 C-2.525 5.495 -2.525 5.495 0 6 C0 4.02 0 2.04 0 0 Z " fill="#D2D3D3" transform="translate(254,274)"/>
<path d="M0 0 C3.84828813 1.28276271 4.18588205 2.57086026 6.13671875 6.05859375 C6.71357422 7.08404297 7.29042969 8.10949219 7.88476562 9.16601562 C8.47966797 10.24560547 9.07457031 11.32519531 9.6875 12.4375 C10.29400391 13.51322266 10.90050781 14.58894531 11.52539062 15.69726562 C16 23.71532269 16 23.71532269 16 26 C13.69 26 11.38 26 9 26 C9 39.2 9 52.4 9 66 C0 63 0 63 -7 59 C-7 46.79 -7 34.58 -7 22 C-9.31 21.67 -11.62 21.34 -14 21 C-12.50548809 16.46551499 -9.94362819 13.05874042 -7 9.375 C-3.37506013 4.78052804 -3.37506013 4.78052804 0 0 Z " fill="#59B752" transform="translate(267,138)"/>
<path d="M0 0 C4.41015502 4.15992925 7.17356731 8.88481963 10.25 14.0625 C10.80429688 14.97322266 11.35859375 15.88394531 11.9296875 16.82226562 C12.45304687 17.69689453 12.97640625 18.57152344 13.515625 19.47265625 C13.99290039 20.26937744 14.47017578 21.06609863 14.96191406 21.88696289 C16 24 16 24 16 27 C13.69 26.67 11.38 26.34 9 26 C9 34.58 9 43.16 9 52 C2 51 2 51 -7 47 C-7.33 39.08 -7.66 31.16 -8 23 C-10.31 22.34 -12.62 21.68 -15 21 C-12.28677036 16.02890793 -9.31499954 11.56869985 -5.8125 7.125 C-5.13670898 6.25488281 -5.13670898 6.25488281 -4.44726562 5.3671875 C-1.20076885 1.20076885 -1.20076885 1.20076885 0 0 Z " fill="#5AB652" transform="translate(233,150)"/>
<path d="M0 0 C0.99 0 1.98 0 3 0 C5.33333333 0 7.66666667 0 10 0 C10.11654436 3.5622231 10.1873639 7.12395342 10.25 10.6875 C10.30027344 12.19860352 10.30027344 12.19860352 10.3515625 13.74023438 C10.45084534 21.26090928 10.45084534 21.26090928 8.09375 25.125 C4.15748586 28.65001266 1.44290551 29.38084637 -3.9609375 29.26953125 C-7.01702658 28.86556545 -9.38404815 27.56957111 -12 26 C-11.34 24.68 -10.68 23.36 -10 22 C-6.37 22 -2.74 22 1 22 C1.33 21.01 1.66 20.02 2 19 C1.34 19.33 0.68 19.66 0 20 C-4.56559624 20.12339449 -7.99486876 19.83352347 -11.5625 16.875 C-13.37462469 13.25075063 -13.50128322 11.01026576 -13 7 C-10.00196418 0.57563752 -6.82703282 -0.2438226 0 0 Z " fill="#3E4245" transform="translate(271,345)"/>
<path d="M0 0 C2.31 0 4.62 0 7 0 C7 9.24 7 18.48 7 28 C4.298125 28.0825 1.59625 28.165 -1.1875 28.25 C-2.02949951 28.28641602 -2.87149902 28.32283203 -3.73901367 28.36035156 C-7.67603679 28.41837972 -9.56872297 28.27286024 -12.98828125 26.109375 C-16.31691026 22.61916206 -16.38946548 19.93326576 -16.359375 15.26171875 C-15.78943134 11.67479071 -13.79773951 10.13161106 -11 8 C-8.26094655 6.63047327 -6.02912668 6.87378639 -3 7 C-2.34 7.33 -1.68 7.66 -1 8 C-0.67 5.36 -0.34 2.72 0 0 Z " fill="#3E4245" transform="translate(198,338)"/>
<path d="M0 0 C3.5 1.3125 3.5 1.3125 6 3 C6.33 3.99 6.66 4.98 7 6 C6.01 6.66 5.02 7.32 4 8 C2.65835921 7.7018576 1.32676508 7.35858516 0 7 C-2.75925528 6.74766254 -5.20462072 6.81965295 -8 7 C-10.71232939 11.06849409 -10.30699887 13.16476784 -10 18 C-6.99382731 21.00617269 -4.17618402 20.59585316 0 21 C0 18.36 0 15.72 0 13 C2.31 13 4.62 13 7 13 C7 16.96 7 20.92 7 25 C0.09076619 27.76369352 -6.58622749 28.4373779 -13.5625 25.5 C-16.7269465 22.25441384 -18.29615117 19.49197906 -19 15 C-18.89881708 10.95268306 -18.27333567 7.48497041 -15.58984375 4.35546875 C-10.4453218 -0.03064702 -6.54669646 -0.62611023 0 0 Z " fill="#3D4245" transform="translate(146,339)"/>
<path d="M0 0 C2.87029869 1.79393668 4.49131638 2.98263276 6 6 C6.0716735 8.55157655 6.09308442 11.07472971 6.0625 13.625 C6.05798828 14.33140625 6.05347656 15.0378125 6.04882812 15.765625 C6.03703875 17.51045275 6.01910324 19.255237 6 21 C3.22858283 21.08089542 0.45952181 21.14044062 -2.3125 21.1875 C-3.09818359 21.21263672 -3.88386719 21.23777344 -4.69335938 21.26367188 C-5.45068359 21.27333984 -6.20800781 21.28300781 -6.98828125 21.29296875 C-7.68477783 21.3086792 -8.38127441 21.32438965 -9.09887695 21.34057617 C-11.60679907 20.89129515 -12.47136822 20.00484471 -14 18 C-14.63847487 12.89220104 -14.63847487 12.89220104 -12.80078125 10.32421875 C-10.37182453 8.53806619 -8.79277437 8.69638541 -5.8125 8.8125 C-4.91144531 8.83957031 -4.01039063 8.86664063 -3.08203125 8.89453125 C-2.05142578 8.94673828 -2.05142578 8.94673828 -1 9 C-1.33 8.34 -1.66 7.68 -2 7 C-5.3 7 -8.6 7 -12 7 C-12.33 5.35 -12.66 3.7 -13 2 C-8.69321224 -0.44148966 -4.86389189 -0.72828328 0 0 Z " fill="#42464A" transform="translate(366,345)"/>
<path d="M0 0 C2.31 0 4.62 0 7 0 C7.67305018 1.60149886 8.33822227 3.20631029 9 4.8125 C9.37125 5.70582031 9.7425 6.59914063 10.125 7.51953125 C11 10 11 10 11 13 C11.66 13 12.32 13 13 13 C13.1546875 12.01 13.1546875 12.01 13.3125 11 C14.19213564 7.16158991 15.56969896 3.66903309 17 0 C19.31 0 21.62 0 24 0 C22.20477808 5.91367222 20.01769606 11.6191104 17.625 17.3125 C17.34519287 18.00601562 17.06538574 18.69953125 16.77709961 19.4140625 C14.91430758 23.75618593 13.12778101 26.41360557 9 29 C5.875 29.4375 5.875 29.4375 3 29 C1.125 27.5 1.125 27.5 0 26 C0.66 24.68 1.32 23.36 2 22 C3.98 22.33 5.96 22.66 8 23 C4.76073838 14.36944294 4.76073838 14.36944294 1.1875 5.875 C0 3 0 3 0 0 Z " fill="#43474A" transform="translate(328,345)"/>
<path d="M0 0 C3.04671899 1.9714064 3.21706455 3.90538954 4.125 7.375 C4.3203125 10.8046875 4.3203125 10.8046875 4.25 14.25 C4.23195313 15.40242188 4.21390625 16.55484375 4.1953125 17.7421875 C4.17210937 18.61101562 4.14890625 19.47984375 4.125 20.375 C1.35358283 20.45589542 -1.41547819 20.51544062 -4.1875 20.5625 C-4.97318359 20.58763672 -5.75886719 20.61277344 -6.56835938 20.63867188 C-7.32568359 20.64833984 -8.08300781 20.65800781 -8.86328125 20.66796875 C-9.55977783 20.6836792 -10.25627441 20.69938965 -10.97387695 20.71557617 C-13.48179907 20.26629515 -14.34636822 19.37984471 -15.875 17.375 C-16.51347487 12.26720104 -16.51347487 12.26720104 -14.67578125 9.69921875 C-12.24682453 7.91306619 -10.66777437 8.07138541 -7.6875 8.1875 C-6.78644531 8.21457031 -5.88539063 8.24164063 -4.95703125 8.26953125 C-3.92642578 8.32173828 -3.92642578 8.32173828 -2.875 8.375 C-3.205 7.715 -3.535 7.055 -3.875 6.375 C-4.81472656 6.40980469 -4.81472656 6.40980469 -5.7734375 6.4453125 C-6.99933594 6.47238281 -6.99933594 6.47238281 -8.25 6.5 C-9.06210937 6.52320313 -9.87421875 6.54640625 -10.7109375 6.5703125 C-12.875 6.375 -12.875 6.375 -14.875 4.375 C-14.875 3.385 -14.875 2.395 -14.875 1.375 C-10.31399184 -1.66567211 -5.11176427 -1.1112531 0 0 Z " fill="#3F4245" transform="translate(321.875,345.625)"/>
<path d="M0 0 C4.56944444 2.13888889 4.56944444 2.13888889 6 5 C6.07181821 7.71760108 6.09299506 10.40859388 6.0625 13.125 C6.05798828 13.87910156 6.05347656 14.63320313 6.04882812 15.41015625 C6.03703499 17.27347127 6.01909942 19.13674555 6 21 C3.41554227 21.1081866 0.83562648 21.18737237 -1.75 21.25 C-2.47960937 21.28351563 -3.20921875 21.31703125 -3.9609375 21.3515625 C-7.53601719 21.41656395 -9.58268855 21.30149943 -12.51953125 19.1796875 C-14 17 -14 17 -13.9375 13.875 C-13 11 -13 11 -10 9 C-7.73828125 8.8046875 -7.73828125 8.8046875 -5.3125 8.875 C-4.10013672 8.90207031 -4.10013672 8.90207031 -2.86328125 8.9296875 C-1.94095703 8.96449219 -1.94095703 8.96449219 -1 9 C-1.33 8.34 -1.66 7.68 -2 7 C-4.97 7 -7.94 7 -11 7 C-11.33 5.35 -11.66 3.7 -12 2 C-8.27624541 -0.48250306 -4.32201494 -0.57455357 0 0 Z " fill="#474A4B" transform="translate(222,345)"/>
<path d="M0 0 C2.31 0 4.62 0 7 0 C7.33 4.95 7.66 9.9 8 15 C9.98 14.34 11.96 13.68 14 13 C14.33 8.71 14.66 4.42 15 0 C17.31 0 19.62 0 22 0 C22 6.93 22 13.86 22 21 C19 21 16 21 13 21 C11.72125 21.0825 10.4425 21.165 9.125 21.25 C5.9058851 21.26168463 5.22916645 21.17628188 2.5625 19.125 C-0.30945396 15.21914261 -0.11879817 12.06940101 -0.0625 7.375 C-0.05798828 6.66859375 -0.05347656 5.9621875 -0.04882812 5.234375 C-0.03703875 3.48954725 -0.01910324 1.744763 0 0 Z " fill="#43474A" transform="translate(157,345)"/>
<path d="M0 0 C2.536875 -0.103125 5.07375 -0.20625 7.6875 -0.3125 C8.47729248 -0.35802002 9.26708496 -0.40354004 10.08081055 -0.45043945 C13.96222486 -0.52650713 15.67504561 -0.21663626 19 2 C21.63792794 5.95689191 21.58147356 8.68201665 21.3125 13.3125 C21.28994141 14.05306641 21.26738281 14.79363281 21.24414062 15.55664062 C21.1855815 17.37197357 21.09590886 19.18625681 21 21 C18.69 21 16.38 21 14 21 C13.67 16.38 13.34 11.76 13 7 C11.35 7.33 9.7 7.66 8 8 C7.67 12.29 7.34 16.58 7 21 C4.69 21 2.38 21 0 21 C0 14.07 0 7.14 0 0 Z " fill="#404547" transform="translate(233,345)"/>
<path d="M0 0 C5.61 0 11.22 0 17 0 C17.10807017 3.56331377 17.18735316 7.1233422 17.25 10.6875 C17.30027344 12.19860352 17.30027344 12.19860352 17.3515625 13.74023438 C17.41039035 18.19644403 17.43238498 21.17968084 15.328125 25.171875 C11.73729589 27.99151933 8.98054429 27.62377753 4.57421875 27.44140625 C2 27 2 27 -0.6875 25 C-1.120625 24.34 -1.55375 23.68 -2 23 C-1.01 21.68 -0.02 20.36 1 19 C2.11375 19.33 3.2275 19.66 4.375 20 C7.69459717 21.088643 7.69459717 21.088643 10 21 C10 16.05 10 11.1 10 6 C6.7 6 3.4 6 0 6 C0 4.02 0 2.04 0 0 Z " fill="#3E4447" transform="translate(285,339)"/>
<path d="M0 0 C0.33 0 0.66 0 1 0 C1 9.24 1 18.48 1 28 C-1.701875 28.0825 -4.40375 28.165 -7.1875 28.25 C-8.02949951 28.28641602 -8.87149902 28.32283203 -9.73901367 28.36035156 C-13.63559596 28.41778366 -15.60158899 28.23822514 -19.03125 26.1875 C-21 24 -21 24 -21.3125 20.75 C-21.209375 19.8425 -21.10625 18.935 -21 18 C-20.236875 18.103125 -19.47375 18.20625 -18.6875 18.3125 C-17.800625 18.209375 -16.91375 18.10625 -16 18 C-15.505 17.175 -15.01 16.35 -14.5 15.5 C-14.005 14.675 -13.51 13.85 -13 13 C-10.4375 12.5625 -10.4375 12.5625 -8 13 C-5.14414946 15.85585054 -5 19.04110311 -5 23 C-3.35 23 -1.7 23 0 23 C0 15.41 0 7.82 0 0 Z " fill="#3F4447" transform="translate(204,338)"/>
<path d="M0 0 C3.5 1.3125 3.5 1.3125 6 3 C6.33 3.99 6.66 4.98 7 6 C6.01 6.66 5.02 7.32 4 8 C2.65835921 7.7018576 1.32676508 7.35858516 0 7 C-2.80749313 6.68742485 -5.13357167 6.77250569 -8 7 C-10.89292533 9.3330043 -11.01282406 11.0699494 -11.6875 14.75 C-11.790625 15.8225 -11.89375 16.895 -12 18 C-12.99 18 -13.98 18 -15 18 C-15 18.99 -15 19.98 -15 21 C-15.66 21 -16.32 21 -17 21 C-18.48328005 16.29405394 -19.2875462 13.03178344 -17.9375 8.1875 C-13.42296015 0.76035379 -8.20006569 -0.78423447 0 0 Z " fill="#3F4347" transform="translate(146,339)"/>
<path d="M0 0 C0.99 0 1.98 0 3 0 C5.33333333 0 7.66666667 0 10 0 C9.67 0.99 9.34 1.98 9 3 C9 2.34 9 1.68 9 1 C7.35 1 5.7 1 4 1 C2.78918149 4.10540926 2.78918149 4.10540926 3 8 C2.22222222 12.77777778 2.22222222 12.77777778 1 14 C-1.33944736 13.71269945 -3.6739143 13.38063221 -6 13 C-6.33 12.01 -6.66 11.02 -7 10 C-7.928125 10.99 -7.928125 10.99 -8.875 12 C-11 14 -11 14 -13 14 C-13.29397316 9.00245633 -13.0979156 6.01581652 -10 2 C-6.32312983 -0.45124678 -4.33872783 -0.15495457 0 0 Z " fill="#414445" transform="translate(271,345)"/>
<path d="M0 0 C0.33 0 0.66 0 1 0 C1.10854617 2.39706123 1.18753157 4.78915838 1.25 7.1875 C1.30027344 8.19780273 1.30027344 8.19780273 1.3515625 9.22851562 C1.42312039 12.89585751 1.12454497 14.81011996 -0.90625 17.90625 C-4.30679896 21.30679896 -6.00635113 21.91986703 -10.875 22.3125 C-14.8276387 22.2310786 -17.59410968 21.04353419 -21 19 C-20.34 17.68 -19.68 16.36 -19 15 C-15.37 15 -11.74 15 -8 15 C-7.67 13.35 -7.34 11.7 -7 10 C-5.02 10.66 -3.04 11.32 -1 12 C-0.67 8.04 -0.34 4.08 0 0 Z " fill="#4D5154" transform="translate(280,352)"/>
<path d="M0 0 C0 3.96 0 7.92 0 12 C-2.58445773 12.1081866 -5.16437352 12.18737237 -7.75 12.25 C-8.47960937 12.28351563 -9.20921875 12.31703125 -9.9609375 12.3515625 C-13.49769484 12.41586718 -15.58414827 12.29187109 -18.515625 10.234375 C-20 8 -20 8 -20 4 C-19.01 4 -18.02 4 -17 4 C-16.566875 4.66 -16.13375 5.32 -15.6875 6 C-14.8521875 6.99 -14.8521875 6.99 -14 8 C-10.87413125 8.33397787 -10.87413125 8.33397787 -8 8 C-7.67 6.35 -7.34 4.7 -7 3 C-8.32 3 -9.64 3 -11 3 C-11 2.34 -11 1.68 -11 1 C-10.05125 1.020625 -9.1025 1.04125 -8.125 1.0625 C-4.96309465 0.99926189 -3.14866406 0 0 0 Z " fill="#3E4345" transform="translate(228,354)"/>
<path d="M0 0 C1.21236328 0.04060547 1.21236328 0.04060547 2.44921875 0.08203125 C3.06410156 0.11683594 3.67898438 0.15164063 4.3125 0.1875 C3.3225 0.6825 3.3225 0.6825 2.3125 1.1875 C2.3125 1.8475 2.3125 2.5075 2.3125 3.1875 C3.3025 3.1875 4.2925 3.1875 5.3125 3.1875 C6.4375 8.8125 6.4375 8.8125 5.3125 12.1875 C3.70917209 12.26871924 2.10465974 12.32679134 0.5 12.375 C-0.39332031 12.40980469 -1.28664063 12.44460938 -2.20703125 12.48046875 C-4.6875 12.1875 -4.6875 12.1875 -6.48828125 10.86328125 C-8.34497311 8.26875093 -8.07425552 6.28154418 -7.6875 3.1875 C-5.41892307 0.09791427 -3.73545602 -0.16241113 0 0 Z " fill="#474A4D" transform="translate(359.6875,353.8125)"/>
<path d="M0 0 C2.31 0 4.62 0 7 0 C7.33 0.66 7.66 1.32 8 2 C5.69 1.67 3.38 1.34 1 1 C1.33 2.65 1.66 4.3 2 6 C2.66 5.67 3.32 5.34 4 5 C5.32 5.66 6.64 6.32 8 7 C7.67 11.62 7.34 16.24 7 21 C4.69 21 2.38 21 0 21 C0 14.07 0 7.14 0 0 Z " fill="#4E5355" transform="translate(233,345)"/>
<path d="M0 0 C0.33 0 0.66 0 1 0 C1 4.29 1 8.58 1 13 C-4.28 13 -9.56 13 -15 13 C-13 9 -13 9 -9.9375 7.875 C-8.4834375 7.441875 -8.4834375 7.441875 -7 7 C-6.67 6.34 -6.34 5.68 -6 5 C-7.98 5 -9.96 5 -12 5 C-12 4.67 -12 4.34 -12 4 C-6.555 3.505 -6.555 3.505 -1 3 C-0.67 2.01 -0.34 1.02 0 0 Z " fill="#44484B" transform="translate(325,353)"/>
<path d="M0 0 C1.32 0 2.64 0 4 0 C4 6.27 4 12.54 4 19 C3.34 19 2.68 19 2 19 C1.67 18.34 1.34 17.68 1 17 C0.01 17 -0.98 17 -2 17 C-2.05418326 14.91695462 -2.09287551 12.83350232 -2.125 10.75 C-2.14820313 9.58984375 -2.17140625 8.4296875 -2.1953125 7.234375 C-2.0103949 4.17213954 -1.60823023 2.55797249 0 0 Z " fill="#3D4144" transform="translate(298,340)"/>
<path d="M0 0 C2.31 0 4.62 0 7 0 C7 3.96 7 7.92 7 12 C5.02 12.66 3.04 13.32 1 14 C1 13.34 1 12.68 1 12 C-1.31 11.01 -3.62 10.02 -6 9 C-6 8.67 -6 8.34 -6 8 C-4.02 8 -2.04 8 0 8 C0 5.36 0 2.72 0 0 Z " fill="#4E5357" transform="translate(146,352)"/>
<path d="M0 0 C3.0625 2.5 3.0625 2.5 5 5 C1.40537669 7.25998595 -1.56595675 7.20868087 -5.75 7.125 C-6.92046875 7.10695313 -8.0909375 7.08890625 -9.296875 7.0703125 C-10.63492187 7.03550781 -10.63492187 7.03550781 -12 7 C-12.33 5.35 -12.66 3.7 -13 2 C-8.71801432 -0.41771981 -4.83608215 -0.88632822 0 0 Z " fill="#4E5154" transform="translate(366,345)"/>
<path d="M0 0 C5.61 0 11.22 0 17 0 C15.68 0.33 14.36 0.66 13 1 C11.8838344 4.71429898 11.6875805 8.39161508 11.4375 12.25 C11.35371094 13.51328125 11.26992188 14.7765625 11.18359375 16.078125 C11.12300781 17.04234375 11.06242187 18.0065625 11 19 C10.67 19 10.34 19 10 19 C10 14.71 10 10.42 10 6 C6.7 6 3.4 6 0 6 C0 4.02 0 2.04 0 0 Z " fill="#56595C" transform="translate(285,339)"/>
<path d="M0 0 C6.72 0.72 6.72 0.72 8 2 C8.07319621 4.69654854 8.09242537 7.36691458 8.0625 10.0625 C8.05798828 10.82111328 8.05347656 11.57972656 8.04882812 12.36132812 C8.0370068 14.24091871 8.01907078 16.12046899 8 18 C6.68 17.67 5.36 17.34 4 17 C4.22558594 16.29488281 4.45117188 15.58976563 4.68359375 14.86328125 C5.1010403 11.08564768 3.97515917 9.42731043 2.0625 6.1875 C1.49660156 5.21167969 0.93070313 4.23585937 0.34765625 3.23046875 C-0.09707031 2.49441406 -0.54179687 1.75835937 -1 1 C-0.67 0.67 -0.34 0.34 0 0 Z " fill="#6DB869" transform="translate(248,163)"/>
<path d="M0 0 C0.33 1.32 0.66 2.64 1 4 C3.64 4 6.28 4 9 4 C9 5.98 9 7.96 9 10 C6.55222161 11.2238892 5.26609459 11.016364 2.5625 10.75 C1.38880859 10.64945312 1.38880859 10.64945312 0.19140625 10.546875 C-2.35962232 9.91025468 -3.33607581 8.99028875 -5 7 C-3.88820837 3.66462511 -2.52588702 2.36292656 0 0 Z " fill="#45494B" transform="translate(264,354)"/>
<path d="M0 0 C-1.32 3.63 -2.64 7.26 -4 11 C-6.97 10.505 -6.97 10.505 -10 10 C-10.33 11.32 -10.66 12.64 -11 14 C-11.78512397 5.99173554 -11.78512397 5.99173554 -8.625 2 C-4.51764706 -1.12941176 -4.51764706 -1.12941176 0 0 Z " fill="#484C4F" transform="translate(193,346)"/>
<path d="M0 0 C0.763125 0.556875 1.52625 1.11375 2.3125 1.6875 C2.3125 2.3475 2.3125 3.0075 2.3125 3.6875 C7.76107936 5.58816722 12.52265039 6.85292427 18.3125 6.6875 C17.3225 7.1825 17.3225 7.1825 16.3125 7.6875 C16.3125 9.0075 16.3125 10.3275 16.3125 11.6875 C19.9425 12.3475 23.5725 13.0075 27.3125 13.6875 C25.3125 15.6875 25.3125 15.6875 22.375 15.75 C17.67607781 14.93279614 14.13266608 12.21936475 10.23828125 9.6015625 C6.46019528 7.12991747 2.52407205 5.04219699 -1.47265625 2.94921875 C-3.6875 1.6875 -3.6875 1.6875 -5.6875 -0.3125 C-2.6875 -1.3125 -2.6875 -1.3125 0 0 Z " fill="#6DB766" transform="translate(227.6875,219.3125)"/>
<path d="M0 0 C0.99 0.33 1.98 0.66 3 1 C3 1.66 3 2.32 3 3 C5.31 3.33 7.62 3.66 10 4 C9.375 5.875 9.375 5.875 8 8 C5 9.125 5 9.125 2 10 C1.34 10.66 0.68 11.32 0 12 C-1.5 10.875 -1.5 10.875 -3 9 C-3.375 6 -3.375 6 -3 3 C-1.5 1.125 -1.5 1.125 0 0 Z " fill="#46494B" transform="translate(309,354)"/>
<path d="M0 0 C0 4.62 0 9.24 0 14 C-1.98 14 -3.96 14 -6 14 C-6.08114106 12.22992286 -6.13925505 10.45877902 -6.1875 8.6875 C-6.22230469 7.70136719 -6.25710937 6.71523438 -6.29296875 5.69921875 C-6 3 -6 3 -4.67578125 1.14453125 C-3 0 -3 0 0 0 Z " fill="#3B4143" transform="translate(254,352)"/>
<path d="M0 0 C2.5 0.25 2.5 0.25 4.5 2.25 C4.125 5.875 4.125 5.875 3.5 9.25 C1.1875 9.9375 1.1875 9.9375 -1.5 10.25 C-3.3125 9.125 -3.3125 9.125 -4.5 7.25 C-4.8125 4.6875 -4.8125 4.6875 -4.5 2.25 C-2.5 0.25 -2.5 0.25 0 0 Z " fill="#DDDFDD" transform="translate(193.5,350.75)"/>
<path d="M0 0 C1.22589844 0.01353516 1.22589844 0.01353516 2.4765625 0.02734375 C3.41628906 0.04474609 3.41628906 0.04474609 4.375 0.0625 C3.715 0.7225 3.055 1.3825 2.375 2.0625 C1.715 1.7325 1.055 1.4025 0.375 1.0625 C0.375 1.7225 0.375 2.3825 0.375 3.0625 C1.695 3.0625 3.015 3.0625 4.375 3.0625 C4.045 4.7125 3.715 6.3625 3.375 8.0625 C1.065 8.3925 -1.245 8.7225 -3.625 9.0625 C-4.285 7.4125 -4.945 5.7625 -5.625 4.0625 C-6.285 4.0625 -6.945 4.0625 -7.625 4.0625 C-7.295 3.0725 -6.965 2.0825 -6.625 1.0625 C-4.21954362 -0.14022819 -2.67503047 -0.03821472 0 0 Z " fill="#484B4C" transform="translate(216.625,353.9375)"/>
<path d="M0 0 C3.0625 0.1875 3.0625 0.1875 5.0625 2.1875 C4.50694444 6.74305556 4.50694444 6.74305556 3.0625 8.1875 C0.72305264 7.90019945 -1.6114143 7.56813221 -3.9375 7.1875 C-3.98004356 5.18795254 -3.97830783 3.18708364 -3.9375 1.1875 C-2.9375 0.1875 -2.9375 0.1875 0 0 Z " fill="#E0E1DF" transform="translate(268.9375,350.8125)"/>
<path d="M0 0 C0.33 0 0.66 0 1 0 C1 13.2 1 26.4 1 40 C-1.97 39.01 -4.94 38.02 -8 37 C-4 36 -4 36 0 36 C0 34.68 0 33.36 0 32 C-0.66 31.67 -1.32 31.34 -2 31 C-1.67 30.67 -1.34 30.34 -1 30 C-0.84126045 27.78312006 -0.74866163 25.56144702 -0.68359375 23.33984375 C-0.66281265 22.67537735 -0.64203156 22.01091095 -0.62062073 21.3263092 C-0.55506342 19.19681457 -0.49621215 17.06719332 -0.4375 14.9375 C-0.39432061 13.49673153 -0.35070651 12.05597601 -0.30664062 10.61523438 C-0.19937607 7.0769596 -0.09812629 3.53854131 0 0 Z " fill="#60B35B" transform="translate(275,164)"/>
<path d="M0 0 C0.33 0 0.66 0 1 0 C1 9.24 1 18.48 1 28 C-1.31 28 -3.62 28 -6 28 C-6 26.68 -6 25.36 -6 24 C-3 23 -3 23 0 23 C0 15.41 0 7.82 0 0 Z " fill="#626567" transform="translate(204,338)"/>
<path d="M0 0 C-2.78748519 1.67373751 -5.58064427 3.33776267 -8.375 5 C-9.1690625 5.47695312 -9.963125 5.95390625 -10.78125 6.4453125 C-11.92207031 7.12207031 -11.92207031 7.12207031 -13.0859375 7.8125 C-13.7876709 8.23144531 -14.4894043 8.65039062 -15.21240234 9.08203125 C-17 10 -17 10 -19 10 C-18.67 9.01 -18.34 8.02 -18 7 C-17.01 7 -16.02 7 -15 7 C-14.938125 6.401875 -14.87625 5.80375 -14.8125 5.1875 C-13.6763243 2.12856542 -11.82669858 1.44958901 -9 0 C-9 0.66 -9 1.32 -9 2 C-8.34 2 -7.68 2 -7 2 C-7 1.34 -7 0.68 -7 0 C-2.25 -1.125 -2.25 -1.125 0 0 Z " fill="#5FB55C" transform="translate(297,210)"/>
<path d="M0 0 C1.98 0 3.96 0 6 0 C6.79953138 3.28696233 7.09658936 4.71023192 6 8 C4.68 8 3.36 8 2 8 C2 7.34 2 6.68 2 6 C1.01 5.67 0.02 5.34 -1 5 C-0.67 3.35 -0.34 1.7 0 0 Z " fill="#474C4F" transform="translate(359,358)"/>
<path d="M0 0 C0.33 0 0.66 0 1 0 C1 5.28 1 10.56 1 16 C-1.475 15.01 -1.475 15.01 -4 14 C-3.49287967 10.28111761 -2.88391785 7.26545761 -1 4 C-1.66 3.67 -2.32 3.34 -3 3 C-2.01 3 -1.02 3 0 3 C0 2.01 0 1.02 0 0 Z " fill="#4A4D4F" transform="translate(249,242)"/>
<path d="M0 0 C3.4375 0.1875 3.4375 0.1875 7 1 C8.4375 3.0625 8.4375 3.0625 9 5 C4.56923077 7.09230769 4.56923077 7.09230769 1.6875 6.625 C1.130625 6.41875 0.57375 6.2125 0 6 C-0.38218767 4.34385343 -0.71395102 2.67542976 -1 1 C-0.67 0.67 -0.34 0.34 0 0 Z " fill="#3C4044" transform="translate(335,358)"/>
<path d="M0 0 C0.66 0.33 1.32 0.66 2 1 C1.67 4.3 1.34 7.6 1 11 C0.01 11 -0.98 11 -2 11 C-2 11.99 -2 12.98 -2 14 C-2.66 14 -3.32 14 -4 14 C-4.33 11.69 -4.66 9.38 -5 7 C-4.34 7 -3.68 7 -3 7 C-2.690625 6.21625 -2.38125 5.4325 -2.0625 4.625 C-1 2 -1 2 0 0 Z " fill="#393D41" transform="translate(133,346)"/>
<path d="M0 0 C0 0.99 0 1.98 0 3 C0.30050829 4.40326639 0.63590136 5.79937393 1 7.1875 C1.33 8.445625 1.66 9.70375 2 11 C-1.59391114 9.66511872 -4.75490696 8.03977277 -8 6 C-5.51047079 3.33264727 -3.36591866 1.44253657 0 0 Z " fill="#64B560" transform="translate(197,195)"/>
<path d="M0 0 C1.9375 0.75 1.9375 0.75 4 2 C4.75 4.125 4.75 4.125 5 6 C4.01 6.33 3.02 6.66 2 7 C0.15006148 9.84412317 -0.32984478 12.40490751 -0.625 15.75 C-0.69976562 16.54921875 -0.77453125 17.3484375 -0.8515625 18.171875 C-0.90054688 18.77515625 -0.94953125 19.3784375 -1 20 C-1.33 20 -1.66 20 -2 20 C-2 15.38 -2 10.76 -2 6 C-1.34 6 -0.68 6 0 6 C0 4.02 0 2.04 0 0 Z " fill="#535759" transform="translate(249,346)"/>
<path d="M0 0 C0 5.28 0 10.56 0 16 C-0.33 16 -0.66 16 -1 16 C-1 13.69 -1 11.38 -1 9 C-1.99 9 -2.98 9 -4 9 C-4.12375 8.195625 -4.2475 7.39125 -4.375 6.5625 C-4.684375 5.2940625 -4.684375 5.2940625 -5 4 C-5.66 3.67 -6.32 3.34 -7 3 C-2.25 0 -2.25 0 0 0 Z " fill="#6DBB69" transform="translate(222,182)"/>
<path d="M0 0 C2.475 0.99 2.475 0.99 5 2 C4.67 2.99 4.34 3.98 4 5 C4.66 5.33 5.32 5.66 6 6 C6 6.66 6 7.32 6 8 C3.75 8.25 3.75 8.25 1 8 C-1.3125 6 -1.3125 6 -3 4 C-2.01 2.68 -1.02 1.36 0 0 Z " fill="#494D4E" transform="translate(286,358)"/>
<path d="M0 0 C-0.639375 0.45375 -1.27875 0.9075 -1.9375 1.375 C-4.09702406 2.83921726 -4.09702406 2.83921726 -5 5 C-4.01 5.33 -3.02 5.66 -2 6 C-8.0546875 6.9765625 -8.0546875 6.9765625 -10 7 C-10.66 6.34 -11.32 5.68 -12 5 C-12 4.01 -12 3.02 -12 2 C-8.09971775 -0.60018816 -4.52565431 -0.15085514 0 0 Z " fill="#4F5153" transform="translate(319,345)"/>
<path d="M0 0 C0 4.29 0 8.58 0 13 C-0.66 11.68 -1.32 10.36 -2 9 C-4.0335948 7.73195434 -4.0335948 7.73195434 -6 7 C-5.67 6.67 -5.34 6.34 -5 6 C-5.40929986 3.94603274 -5.40929986 3.94603274 -6 2 C-2.25 0 -2.25 0 0 0 Z " fill="#4E5253" transform="translate(271,266)"/>
<path d="M0 0 C1.37478516 0.01740234 1.37478516 0.01740234 2.77734375 0.03515625 C3.69644531 0.04417969 4.61554688 0.05320312 5.5625 0.0625 C6.27277344 0.07410156 6.98304688 0.08570313 7.71484375 0.09765625 C6.97265625 2.01953125 6.97265625 2.01953125 5.71484375 4.09765625 C3.76953125 4.92578125 3.76953125 4.92578125 1.58984375 5.34765625 C0.31109375 5.59515625 -0.96765625 5.84265625 -2.28515625 6.09765625 C-2.66734392 4.44150968 -2.99910727 2.77308601 -3.28515625 1.09765625 C-2.28515625 0.09765625 -2.28515625 0.09765625 0 0 Z " fill="#45494C" transform="translate(356.28515625,345.90234375)"/>
<path d="M0 0 C0.33 0 0.66 0 1 0 C2.44444444 9.56944444 2.44444444 9.56944444 0 14 C-1.32 13.34 -2.64 12.68 -4 12 C-4 10.35 -4 8.7 -4 7 C-3.01 6.67 -2.02 6.34 -1 6 C-0.67 4.02 -0.34 2.04 0 0 Z " fill="#4D5155" transform="translate(134,350)"/>
<path d="M0 0 C1.32 0 2.64 0 4 0 C4.3125 2.3125 4.3125 2.3125 4 5 C1.75 6.875 1.75 6.875 -1 8 C-3.3125 7.6875 -3.3125 7.6875 -5 7 C-5 5 -5 5 -3.625 3.375 C-2 2 -2 2 0 2 C0 1.34 0 0.68 0 0 Z " fill="#3C3F43" transform="translate(367,350)"/>
<path d="M0 0 C0.33 0.99 0.66 1.98 1 3 C-1.60704898 5.60704898 -3.47338241 5.23905333 -7.02734375 5.265625 C-9 5 -9 5 -12 3 C-11.34 3 -10.68 3 -10 3 C-10 2.34 -10 1.68 -10 1 C-7.98177083 1.03255208 -5.96354167 1.06510417 -3.9453125 1.09765625 C-1.91814596 1.12649242 -1.91814596 1.12649242 0 0 Z " fill="#CDCFD0" transform="translate(273,363)"/>
<path d="M0 0 C0.99 0.66 1.98 1.32 3 2 C3 2.66 3 3.32 3 4 C1.68 4.33 0.36 4.66 -1 5 C-0.505 5.45375 -0.01 5.9075 0.5 6.375 C2 8 2 8 2 10 C-2.75 9.125 -2.75 9.125 -5 8 C-3.8141763 4.62496331 -2.72426311 2.35277269 0 0 Z " fill="#55B54E" transform="translate(233,150)"/>
<path d="M0 0 C2.05078125 0.03255208 4.1015625 0.06510417 6.15234375 0.09765625 C5.52734375 1.97265625 5.52734375 1.97265625 4.15234375 4.09765625 C1.02734375 5.34765625 1.02734375 5.34765625 -1.84765625 6.09765625 C-2.22984392 4.44150968 -2.56160727 2.77308601 -2.84765625 1.09765625 C-1.84765625 0.09765625 -1.84765625 0.09765625 0 0 Z " fill="#424445" transform="translate(212.84765625,345.90234375)"/>
<path d="M0 0 C0.9590625 0.2784375 0.9590625 0.2784375 1.9375 0.5625 C2.9584375 0.7790625 2.9584375 0.7790625 4 1 C4.33 0.67 4.66 0.34 5 0 C7.33297433 -0.04092937 9.66705225 -0.04241723 12 0 C11.67 0.99 11.34 1.98 11 3 C11 2.34 11 1.68 11 1 C9.35 1 7.7 1 6 1 C5.67 1.99 5.34 2.98 5 4 C4.34 4.66 3.68 5.32 3 6 C0.875 5.625 0.875 5.625 -1 5 C-0.67 3.35 -0.34 1.7 0 0 Z " fill="#545759" transform="translate(269,345)"/>
<path d="M0 0 C0.33 0.99 0.66 1.98 1 3 C0.67 3.66 0.34 4.32 0 5 C0.639375 5.268125 1.27875 5.53625 1.9375 5.8125 C4 7 4 7 5 10 C4.34 10 3.68 10 3 10 C3 9.34 3 8.68 3 8 C0.69 8.33 -1.62 8.66 -4 9 C-3.67 8.01 -3.34 7.02 -3 6 C-3 5.01 -3 4.02 -3 3 C-1.5 1.3125 -1.5 1.3125 0 0 Z M-2 4 C-1 6 -1 6 -1 6 Z " fill="#4FB747" transform="translate(285,202)"/>
<path d="M0 0 C0.33 0 0.66 0 1 0 C1 5.28 1 10.56 1 16 C-0.32 15.67 -1.64 15.34 -3 15 C-2.67 13.02 -2.34 11.04 -2 9 C-1.34 9 -0.68 9 0 9 C0 6.03 0 3.06 0 0 Z " fill="#77BE76" transform="translate(255,165)"/>
<path d="M0 0 C1.32 0.33 2.64 0.66 4 1 C4.625 4.375 4.625 4.375 5 8 C4.34 8.66 3.68 9.32 3 10 C2.49596232 8.70990357 1.99690074 7.41786211 1.5 6.125 C1.2215625 5.40570313 0.943125 4.68640625 0.65625 3.9453125 C0 2 0 2 0 0 Z " fill="#404346" transform="translate(332,347)"/>
<path d="M0 0 C1.65 0.33 3.3 0.66 5 1 C4.67 1.66 4.34 2.32 4 3 C3.34 3 2.68 3 2 3 C3.25541557 5.51083114 4.50063488 5.87125446 7 7 C1.46153846 7.36923077 1.46153846 7.36923077 -0.875 5.5 C-1.24625 5.005 -1.6175 4.51 -2 4 C-1.34 2.68 -0.68 1.36 0 0 Z " fill="#505458" transform="translate(330,367)"/>
<path d="M0 0 C0.33 0.99 0.66 1.98 1 3 C-2.3 3 -5.6 3 -9 3 C-9.33 2.34 -9.66 1.68 -10 1 C-6.78548731 -0.60725635 -3.56387464 -0.05748185 0 0 Z " fill="#D3D4D5" transform="translate(364,351)"/>
<path d="M0 0 C1.65 0 3.3 0 5 0 C5 1.32 5 2.64 5 4 C2.69 4 0.38 4 -2 4 C-1.34 2.68 -0.68 1.36 0 0 Z " fill="#3C4143" transform="translate(312,362)"/>
<path d="M0 0 C0 2.64 0 5.28 0 8 C-0.99 8.495 -0.99 8.495 -2 9 C-2.33 7.02 -2.66 5.04 -3 3 C-4.98 3.33 -6.96 3.66 -9 4 C-6.19956937 1.69964627 -3.74076891 0 0 0 Z " fill="#60B65D" transform="translate(218,185)"/>
<path d="M0 0 C1.65 0.33 3.3 0.66 5 1 C2.63202009 3.61724095 0.10399646 5.32861729 -3 7 C-3.66 7 -4.32 7 -5 7 C-4.67 6.01 -4.34 5.02 -4 4 C-3.01 4 -2.02 4 -1 4 C-0.67 2.68 -0.34 1.36 0 0 Z " fill="#68B862" transform="translate(283,213)"/>
<path d="M0 0 C0.99 0 1.98 0 3 0 C4.0625 2.375 4.0625 2.375 5 5 C4.67 5.66 4.34 6.32 4 7 C3.01 6.67 2.02 6.34 1 6 C0.67 4.02 0.34 2.04 0 0 Z " fill="#454A4A" transform="translate(208,358)"/>
<path d="M0 0 C0.433125 0.9590625 0.433125 0.9590625 0.875 1.9375 C1.82823451 4.15206079 1.82823451 4.15206079 4 5 C4 5.66 4 6.32 4 7 C2.02 7 0.04 7 -2 7 C-1.125 2.25 -1.125 2.25 0 0 Z " fill="#3C4043" transform="translate(357,359)"/>
<path d="M0 0 C1.98 0 3.96 0 6 0 C5.34 1.32 4.68 2.64 4 4 C2.35 3.67 0.7 3.34 -1 3 C-0.67 2.01 -0.34 1.02 0 0 Z " fill="#D1D3D2" transform="translate(313,358)"/>
<path d="M0 0 C2.31 0 4.62 0 7 0 C7.33 0.99 7.66 1.98 8 3 C5.36 3 2.72 3 0 3 C0 2.01 0 1.02 0 0 Z " fill="#D3D4D4" transform="translate(311,351)"/>
<path d="M0 0 C4 4.625 4 4.625 4 8 C1.69 7.67 -0.62 7.34 -3 7 C-2.01 6.67 -1.02 6.34 0 6 C0 4.02 0 2.04 0 0 Z " fill="#69B465" transform="translate(245,169)"/>
<path d="M0 0 C0.33 0.99 0.66 1.98 1 3 C0.505 3.4125 0.01 3.825 -0.5 4.25 C-2.43386092 6.12202338 -2.43386092 6.12202338 -2 10 C-3.32 10 -4.64 10 -6 10 C-4.6302836 6.00499382 -2.74277578 3.19990508 0 0 Z " fill="#6AB166" transform="translate(259,149)"/>
<path d="M0 0 C2.95749791 3.46741134 5.07848152 6.86873527 7 11 C3.20764006 9.51014431 1.19434113 7.41341953 -1 4 C-0.75 1.6875 -0.75 1.6875 0 0 Z " fill="#6EB766" transform="translate(273,146)"/>
<path d="M0 0 C0.99 0.33 1.98 0.66 3 1 C3.33 2.98 3.66 4.96 4 7 C3.01 7.33 2.02 7.66 1 8 C0 7 0 7 -0.0625 3.4375 C-0.041875 2.303125 -0.02125 1.16875 0 0 Z " fill="#55B948" transform="translate(281,185)"/>
<path d="M0 0 C0.33 0 0.66 0 1 0 C1.3125 2.25 1.3125 2.25 1 5 C-1.5 7.3125 -1.5 7.3125 -4 9 C-4.66 8.67 -5.32 8.34 -6 8 C-5.02471263 6.66382648 -4.04466681 5.3311249 -3.0625 4 C-2.24458984 2.88625 -2.24458984 2.88625 -1.41015625 1.75 C-0.94480469 1.1725 -0.47945312 0.595 0 0 Z " fill="#67B464" transform="translate(226,159)"/>
<path d="M0 0 C2.31 0 4.62 0 7 0 C6.34 1.98 5.68 3.96 5 6 C4.34 6 3.68 6 3 6 C2.67 5.01 2.34 4.02 2 3 C2.33 2.67 2.66 2.34 3 2 C2.01 1.34 1.02 0.68 0 0 Z " fill="#5E5F62" transform="translate(345,345)"/>
<path d="M0 0 C1.98 0 3.96 0 6 0 C5.34 1.32 4.68 2.64 4 4 C2.68 3.67 1.36 3.34 0 3 C0 2.01 0 1.02 0 0 Z " fill="#DBDDDD" transform="translate(359,358)"/>
<path d="M0 0 C1.65 0 3.3 0 5 0 C4.67 1.32 4.34 2.64 4 4 C2.35 3.67 0.7 3.34 -1 3 C-0.67 2.01 -0.34 1.02 0 0 Z " fill="#D5D7D4" transform="translate(216,358)"/>
<path d="M0 0 C2.31 0 4.62 0 7 0 C7.33 0.99 7.66 1.98 8 3 C5.69 3 3.38 3 1 3 C0.67 2.01 0.34 1.02 0 0 Z " fill="#D7D7D7" transform="translate(213,351)"/>
<path d="M0 0 C2.475 0.99 2.475 0.99 5 2 C5 4.31 5 6.62 5 9 C4.34 8.67 3.68 8.34 3 8 C3 7.01 3 6.02 3 5 C2.34 4.67 1.68 4.34 1 4 C0.375 1.9375 0.375 1.9375 0 0 Z " fill="#52B24A" transform="translate(240,166)"/>
<path d="M0 0 C2.33944736 0.28730055 4.6739143 0.61936779 7 1 C4 3 4 3 2 3 C1.67 3.66 1.34 4.32 1 5 C0.34 3.68 -0.32 2.36 -1 1 C-0.67 0.67 -0.34 0.34 0 0 Z " fill="#72B86E" transform="translate(248,163)"/>
<path d="M0 0 C1.9375 0.8125 1.9375 0.8125 4 2 C4.33 2.99 4.66 3.98 5 5 C3.35 5 1.7 5 0 5 C0 3.35 0 1.7 0 0 Z " fill="#3A3F42" transform="translate(234,361)"/>
<path d="M0 0 C0 1.65 0 3.3 0 5 C-1.65 4.67 -3.3 4.34 -5 4 C-5 3.01 -5 2.02 -5 1 C-3 0 -3 0 0 0 Z " fill="#59B554" transform="translate(255,165)"/>
<path d="M0 0 C0.99 0.66 1.98 1.32 3 2 C3 2.66 3 3.32 3 4 C1.68 4 0.36 4 -1 4 C-1.99 5.485 -1.99 5.485 -3 7 C-3.66 6.67 -4.32 6.34 -5 6 C-3.35 4.02 -1.7 2.04 0 0 Z " fill="#6EB46C" transform="translate(233,150)"/>
<path d="M0 0 C2.64 0 5.28 0 8 0 C7.67 0.99 7.34 1.98 7 3 C5.02 3 3.04 3 1 3 C0.67 2.01 0.34 1.02 0 0 Z " fill="#6CBB64" transform="translate(246,217)"/>
<path d="M0 0 C2.97 0.33 5.94 0.66 9 1 C9 1.99 9 2.98 9 4 C6.03 3.01 3.06 2.02 0 1 C0 0.67 0 0.34 0 0 Z " fill="#72B36E" transform="translate(267,200)"/>
<path d="M0 0 C0.2475 0.61875 0.495 1.2375 0.75 1.875 C2.20628639 4.35068687 3.37812506 4.95125002 6 6 C6 6.66 6 7.32 6 8 C4.02 7.34 2.04 6.68 0 6 C0 4.02 0 2.04 0 0 Z " fill="#6AB064" transform="translate(261,192)"/>
</svg>
